%TF.GenerationSoftware,KiCad,Pcbnew,5.1.9-73d0e3b20d~88~ubuntu20.04.1*%
%TF.CreationDate,2021-03-27T19:40:49+01:00*%
%TF.ProjectId,circledisplay,63697263-6c65-4646-9973-706c61792e6b,rev?*%
%TF.SameCoordinates,Original*%
%TF.FileFunction,Copper,L1,Top*%
%TF.FilePolarity,Positive*%
%FSLAX46Y46*%
G04 Gerber Fmt 4.6, Leading zero omitted, Abs format (unit mm)*
G04 Created by KiCad (PCBNEW 5.1.9-73d0e3b20d~88~ubuntu20.04.1) date 2021-03-27 19:40:49*
%MOMM*%
%LPD*%
G01*
G04 APERTURE LIST*
%TA.AperFunction,ComponentPad*%
%ADD10R,1.700000X1.700000*%
%TD*%
%TA.AperFunction,ComponentPad*%
%ADD11O,1.700000X1.700000*%
%TD*%
%TA.AperFunction,SMDPad,CuDef*%
%ADD12R,0.900000X0.800000*%
%TD*%
%TA.AperFunction,ViaPad*%
%ADD13C,0.800000*%
%TD*%
%TA.AperFunction,Conductor*%
%ADD14C,0.250000*%
%TD*%
%TA.AperFunction,Conductor*%
%ADD15C,0.500000*%
%TD*%
%TA.AperFunction,Conductor*%
%ADD16C,0.254000*%
%TD*%
%TA.AperFunction,Conductor*%
%ADD17C,0.100000*%
%TD*%
G04 APERTURE END LIST*
%TO.P,C1,1*%
%TO.N,VCC*%
%TA.AperFunction,SMDPad,CuDef*%
G36*
G01*
X117655000Y-59215000D02*
X117655000Y-60165000D01*
G75*
G02*
X117405000Y-60415000I-250000J0D01*
G01*
X116905000Y-60415000D01*
G75*
G02*
X116655000Y-60165000I0J250000D01*
G01*
X116655000Y-59215000D01*
G75*
G02*
X116905000Y-58965000I250000J0D01*
G01*
X117405000Y-58965000D01*
G75*
G02*
X117655000Y-59215000I0J-250000D01*
G01*
G37*
%TD.AperFunction*%
%TO.P,C1,2*%
%TO.N,BTN1*%
%TA.AperFunction,SMDPad,CuDef*%
G36*
G01*
X115755000Y-59215000D02*
X115755000Y-60165000D01*
G75*
G02*
X115505000Y-60415000I-250000J0D01*
G01*
X115005000Y-60415000D01*
G75*
G02*
X114755000Y-60165000I0J250000D01*
G01*
X114755000Y-59215000D01*
G75*
G02*
X115005000Y-58965000I250000J0D01*
G01*
X115505000Y-58965000D01*
G75*
G02*
X115755000Y-59215000I0J-250000D01*
G01*
G37*
%TD.AperFunction*%
%TD*%
%TO.P,C2,2*%
%TO.N,BTN2*%
%TA.AperFunction,SMDPad,CuDef*%
G36*
G01*
X115755000Y-74455000D02*
X115755000Y-75405000D01*
G75*
G02*
X115505000Y-75655000I-250000J0D01*
G01*
X115005000Y-75655000D01*
G75*
G02*
X114755000Y-75405000I0J250000D01*
G01*
X114755000Y-74455000D01*
G75*
G02*
X115005000Y-74205000I250000J0D01*
G01*
X115505000Y-74205000D01*
G75*
G02*
X115755000Y-74455000I0J-250000D01*
G01*
G37*
%TD.AperFunction*%
%TO.P,C2,1*%
%TO.N,VCC*%
%TA.AperFunction,SMDPad,CuDef*%
G36*
G01*
X117655000Y-74455000D02*
X117655000Y-75405000D01*
G75*
G02*
X117405000Y-75655000I-250000J0D01*
G01*
X116905000Y-75655000D01*
G75*
G02*
X116655000Y-75405000I0J250000D01*
G01*
X116655000Y-74455000D01*
G75*
G02*
X116905000Y-74205000I250000J0D01*
G01*
X117405000Y-74205000D01*
G75*
G02*
X117655000Y-74455000I0J-250000D01*
G01*
G37*
%TD.AperFunction*%
%TD*%
%TO.P,C3,1*%
%TO.N,VCC*%
%TA.AperFunction,SMDPad,CuDef*%
G36*
G01*
X81460000Y-71915000D02*
X81460000Y-72865000D01*
G75*
G02*
X81210000Y-73115000I-250000J0D01*
G01*
X80710000Y-73115000D01*
G75*
G02*
X80460000Y-72865000I0J250000D01*
G01*
X80460000Y-71915000D01*
G75*
G02*
X80710000Y-71665000I250000J0D01*
G01*
X81210000Y-71665000D01*
G75*
G02*
X81460000Y-71915000I0J-250000D01*
G01*
G37*
%TD.AperFunction*%
%TO.P,C3,2*%
%TO.N,GND*%
%TA.AperFunction,SMDPad,CuDef*%
G36*
G01*
X79560000Y-71915000D02*
X79560000Y-72865000D01*
G75*
G02*
X79310000Y-73115000I-250000J0D01*
G01*
X78810000Y-73115000D01*
G75*
G02*
X78560000Y-72865000I0J250000D01*
G01*
X78560000Y-71915000D01*
G75*
G02*
X78810000Y-71665000I250000J0D01*
G01*
X79310000Y-71665000D01*
G75*
G02*
X79560000Y-71915000I0J-250000D01*
G01*
G37*
%TD.AperFunction*%
%TD*%
%TO.P,D1,1*%
%TO.N,Net-(D1-Pad1)*%
%TA.AperFunction,SMDPad,CuDef*%
G36*
G01*
X100975000Y-57285000D02*
X102225000Y-57285000D01*
G75*
G02*
X102475000Y-57535000I0J-250000D01*
G01*
X102475000Y-58285000D01*
G75*
G02*
X102225000Y-58535000I-250000J0D01*
G01*
X100975000Y-58535000D01*
G75*
G02*
X100725000Y-58285000I0J250000D01*
G01*
X100725000Y-57535000D01*
G75*
G02*
X100975000Y-57285000I250000J0D01*
G01*
G37*
%TD.AperFunction*%
%TO.P,D1,2*%
%TO.N,Net-(D1-Pad2)*%
%TA.AperFunction,SMDPad,CuDef*%
G36*
G01*
X100975000Y-60085000D02*
X102225000Y-60085000D01*
G75*
G02*
X102475000Y-60335000I0J-250000D01*
G01*
X102475000Y-61085000D01*
G75*
G02*
X102225000Y-61335000I-250000J0D01*
G01*
X100975000Y-61335000D01*
G75*
G02*
X100725000Y-61085000I0J250000D01*
G01*
X100725000Y-60335000D01*
G75*
G02*
X100975000Y-60085000I250000J0D01*
G01*
G37*
%TD.AperFunction*%
%TD*%
%TO.P,D2,2*%
%TO.N,Net-(D10-Pad2)*%
%TA.AperFunction,SMDPad,CuDef*%
G36*
G01*
X103787463Y-60395793D02*
X104942312Y-60874147D01*
G75*
G02*
X105077611Y-61200788I-95671J-230970D01*
G01*
X104790598Y-61893698D01*
G75*
G02*
X104463957Y-62028997I-230970J95671D01*
G01*
X103309108Y-61550643D01*
G75*
G02*
X103173809Y-61224002I95671J230970D01*
G01*
X103460822Y-60531092D01*
G75*
G02*
X103787463Y-60395793I230970J-95671D01*
G01*
G37*
%TD.AperFunction*%
%TO.P,D2,1*%
%TO.N,Net-(D1-Pad1)*%
%TA.AperFunction,SMDPad,CuDef*%
G36*
G01*
X104858977Y-57808931D02*
X106013826Y-58287285D01*
G75*
G02*
X106149125Y-58613926I-95671J-230970D01*
G01*
X105862112Y-59306836D01*
G75*
G02*
X105535471Y-59442135I-230970J95671D01*
G01*
X104380622Y-58963781D01*
G75*
G02*
X104245323Y-58637140I95671J230970D01*
G01*
X104532336Y-57944230D01*
G75*
G02*
X104858977Y-57808931I230970J-95671D01*
G01*
G37*
%TD.AperFunction*%
%TD*%
%TO.P,D3,1*%
%TO.N,Net-(D1-Pad1)*%
%TA.AperFunction,SMDPad,CuDef*%
G36*
G01*
X108246803Y-59779313D02*
X109130687Y-60663197D01*
G75*
G02*
X109130687Y-61016751I-176777J-176777D01*
G01*
X108600357Y-61547081D01*
G75*
G02*
X108246803Y-61547081I-176777J176777D01*
G01*
X107362919Y-60663197D01*
G75*
G02*
X107362919Y-60309643I176777J176777D01*
G01*
X107893249Y-59779313D01*
G75*
G02*
X108246803Y-59779313I176777J-176777D01*
G01*
G37*
%TD.AperFunction*%
%TO.P,D3,2*%
%TO.N,Net-(D11-Pad2)*%
%TA.AperFunction,SMDPad,CuDef*%
G36*
G01*
X106266905Y-61759211D02*
X107150789Y-62643095D01*
G75*
G02*
X107150789Y-62996649I-176777J-176777D01*
G01*
X106620459Y-63526979D01*
G75*
G02*
X106266905Y-63526979I-176777J176777D01*
G01*
X105383021Y-62643095D01*
G75*
G02*
X105383021Y-62289541I176777J176777D01*
G01*
X105913351Y-61759211D01*
G75*
G02*
X106266905Y-61759211I176777J-176777D01*
G01*
G37*
%TD.AperFunction*%
%TD*%
%TO.P,D4,2*%
%TO.N,Net-(D12-Pad2)*%
%TA.AperFunction,SMDPad,CuDef*%
G36*
G01*
X108035853Y-63967688D02*
X108514207Y-65122537D01*
G75*
G02*
X108378908Y-65449178I-230970J-95671D01*
G01*
X107685998Y-65736191D01*
G75*
G02*
X107359357Y-65600892I-95671J230970D01*
G01*
X106881003Y-64446043D01*
G75*
G02*
X107016302Y-64119402I230970J95671D01*
G01*
X107709212Y-63832389D01*
G75*
G02*
X108035853Y-63967688I95671J-230970D01*
G01*
G37*
%TD.AperFunction*%
%TO.P,D4,1*%
%TO.N,Net-(D1-Pad1)*%
%TA.AperFunction,SMDPad,CuDef*%
G36*
G01*
X110622715Y-62896174D02*
X111101069Y-64051023D01*
G75*
G02*
X110965770Y-64377664I-230970J-95671D01*
G01*
X110272860Y-64664677D01*
G75*
G02*
X109946219Y-64529378I-95671J230970D01*
G01*
X109467865Y-63374529D01*
G75*
G02*
X109603164Y-63047888I230970J95671D01*
G01*
X110296074Y-62760875D01*
G75*
G02*
X110622715Y-62896174I95671J-230970D01*
G01*
G37*
%TD.AperFunction*%
%TD*%
%TO.P,D5,1*%
%TO.N,Net-(D1-Pad1)*%
%TA.AperFunction,SMDPad,CuDef*%
G36*
G01*
X111625000Y-66685000D02*
X111625000Y-67935000D01*
G75*
G02*
X111375000Y-68185000I-250000J0D01*
G01*
X110625000Y-68185000D01*
G75*
G02*
X110375000Y-67935000I0J250000D01*
G01*
X110375000Y-66685000D01*
G75*
G02*
X110625000Y-66435000I250000J0D01*
G01*
X111375000Y-66435000D01*
G75*
G02*
X111625000Y-66685000I0J-250000D01*
G01*
G37*
%TD.AperFunction*%
%TO.P,D5,2*%
%TO.N,Net-(D13-Pad2)*%
%TA.AperFunction,SMDPad,CuDef*%
G36*
G01*
X108825000Y-66685000D02*
X108825000Y-67935000D01*
G75*
G02*
X108575000Y-68185000I-250000J0D01*
G01*
X107825000Y-68185000D01*
G75*
G02*
X107575000Y-67935000I0J250000D01*
G01*
X107575000Y-66685000D01*
G75*
G02*
X107825000Y-66435000I250000J0D01*
G01*
X108575000Y-66435000D01*
G75*
G02*
X108825000Y-66685000I0J-250000D01*
G01*
G37*
%TD.AperFunction*%
%TD*%
%TO.P,D6,2*%
%TO.N,Net-(D14-Pad2)*%
%TA.AperFunction,SMDPad,CuDef*%
G36*
G01*
X108514207Y-69497463D02*
X108035853Y-70652312D01*
G75*
G02*
X107709212Y-70787611I-230970J95671D01*
G01*
X107016302Y-70500598D01*
G75*
G02*
X106881003Y-70173957I95671J230970D01*
G01*
X107359357Y-69019108D01*
G75*
G02*
X107685998Y-68883809I230970J-95671D01*
G01*
X108378908Y-69170822D01*
G75*
G02*
X108514207Y-69497463I-95671J-230970D01*
G01*
G37*
%TD.AperFunction*%
%TO.P,D6,1*%
%TO.N,Net-(D1-Pad1)*%
%TA.AperFunction,SMDPad,CuDef*%
G36*
G01*
X111101069Y-70568977D02*
X110622715Y-71723826D01*
G75*
G02*
X110296074Y-71859125I-230970J95671D01*
G01*
X109603164Y-71572112D01*
G75*
G02*
X109467865Y-71245471I95671J230970D01*
G01*
X109946219Y-70090622D01*
G75*
G02*
X110272860Y-69955323I230970J-95671D01*
G01*
X110965770Y-70242336D01*
G75*
G02*
X111101069Y-70568977I-95671J-230970D01*
G01*
G37*
%TD.AperFunction*%
%TD*%
%TO.P,D7,1*%
%TO.N,Net-(D1-Pad1)*%
%TA.AperFunction,SMDPad,CuDef*%
G36*
G01*
X109130687Y-73956803D02*
X108246803Y-74840687D01*
G75*
G02*
X107893249Y-74840687I-176777J176777D01*
G01*
X107362919Y-74310357D01*
G75*
G02*
X107362919Y-73956803I176777J176777D01*
G01*
X108246803Y-73072919D01*
G75*
G02*
X108600357Y-73072919I176777J-176777D01*
G01*
X109130687Y-73603249D01*
G75*
G02*
X109130687Y-73956803I-176777J-176777D01*
G01*
G37*
%TD.AperFunction*%
%TO.P,D7,2*%
%TO.N,Net-(D15-Pad2)*%
%TA.AperFunction,SMDPad,CuDef*%
G36*
G01*
X107150789Y-71976905D02*
X106266905Y-72860789D01*
G75*
G02*
X105913351Y-72860789I-176777J176777D01*
G01*
X105383021Y-72330459D01*
G75*
G02*
X105383021Y-71976905I176777J176777D01*
G01*
X106266905Y-71093021D01*
G75*
G02*
X106620459Y-71093021I176777J-176777D01*
G01*
X107150789Y-71623351D01*
G75*
G02*
X107150789Y-71976905I-176777J-176777D01*
G01*
G37*
%TD.AperFunction*%
%TD*%
%TO.P,D8,2*%
%TO.N,Net-(D16-Pad2)*%
%TA.AperFunction,SMDPad,CuDef*%
G36*
G01*
X104942312Y-73745853D02*
X103787463Y-74224207D01*
G75*
G02*
X103460822Y-74088908I-95671J230970D01*
G01*
X103173809Y-73395998D01*
G75*
G02*
X103309108Y-73069357I230970J95671D01*
G01*
X104463957Y-72591003D01*
G75*
G02*
X104790598Y-72726302I95671J-230970D01*
G01*
X105077611Y-73419212D01*
G75*
G02*
X104942312Y-73745853I-230970J-95671D01*
G01*
G37*
%TD.AperFunction*%
%TO.P,D8,1*%
%TO.N,Net-(D1-Pad1)*%
%TA.AperFunction,SMDPad,CuDef*%
G36*
G01*
X106013826Y-76332715D02*
X104858977Y-76811069D01*
G75*
G02*
X104532336Y-76675770I-95671J230970D01*
G01*
X104245323Y-75982860D01*
G75*
G02*
X104380622Y-75656219I230970J95671D01*
G01*
X105535471Y-75177865D01*
G75*
G02*
X105862112Y-75313164I95671J-230970D01*
G01*
X106149125Y-76006074D01*
G75*
G02*
X106013826Y-76332715I-230970J-95671D01*
G01*
G37*
%TD.AperFunction*%
%TD*%
%TO.P,D9,1*%
%TO.N,Net-(D10-Pad1)*%
%TA.AperFunction,SMDPad,CuDef*%
G36*
G01*
X102225000Y-77335000D02*
X100975000Y-77335000D01*
G75*
G02*
X100725000Y-77085000I0J250000D01*
G01*
X100725000Y-76335000D01*
G75*
G02*
X100975000Y-76085000I250000J0D01*
G01*
X102225000Y-76085000D01*
G75*
G02*
X102475000Y-76335000I0J-250000D01*
G01*
X102475000Y-77085000D01*
G75*
G02*
X102225000Y-77335000I-250000J0D01*
G01*
G37*
%TD.AperFunction*%
%TO.P,D9,2*%
%TO.N,Net-(D1-Pad2)*%
%TA.AperFunction,SMDPad,CuDef*%
G36*
G01*
X102225000Y-74535000D02*
X100975000Y-74535000D01*
G75*
G02*
X100725000Y-74285000I0J250000D01*
G01*
X100725000Y-73535000D01*
G75*
G02*
X100975000Y-73285000I250000J0D01*
G01*
X102225000Y-73285000D01*
G75*
G02*
X102475000Y-73535000I0J-250000D01*
G01*
X102475000Y-74285000D01*
G75*
G02*
X102225000Y-74535000I-250000J0D01*
G01*
G37*
%TD.AperFunction*%
%TD*%
%TO.P,D10,2*%
%TO.N,Net-(D10-Pad2)*%
%TA.AperFunction,SMDPad,CuDef*%
G36*
G01*
X99412537Y-74224207D02*
X98257688Y-73745853D01*
G75*
G02*
X98122389Y-73419212I95671J230970D01*
G01*
X98409402Y-72726302D01*
G75*
G02*
X98736043Y-72591003I230970J-95671D01*
G01*
X99890892Y-73069357D01*
G75*
G02*
X100026191Y-73395998I-95671J-230970D01*
G01*
X99739178Y-74088908D01*
G75*
G02*
X99412537Y-74224207I-230970J95671D01*
G01*
G37*
%TD.AperFunction*%
%TO.P,D10,1*%
%TO.N,Net-(D10-Pad1)*%
%TA.AperFunction,SMDPad,CuDef*%
G36*
G01*
X98341023Y-76811069D02*
X97186174Y-76332715D01*
G75*
G02*
X97050875Y-76006074I95671J230970D01*
G01*
X97337888Y-75313164D01*
G75*
G02*
X97664529Y-75177865I230970J-95671D01*
G01*
X98819378Y-75656219D01*
G75*
G02*
X98954677Y-75982860I-95671J-230970D01*
G01*
X98667664Y-76675770D01*
G75*
G02*
X98341023Y-76811069I-230970J95671D01*
G01*
G37*
%TD.AperFunction*%
%TD*%
%TO.P,D11,1*%
%TO.N,Net-(D10-Pad1)*%
%TA.AperFunction,SMDPad,CuDef*%
G36*
G01*
X94953197Y-74840687D02*
X94069313Y-73956803D01*
G75*
G02*
X94069313Y-73603249I176777J176777D01*
G01*
X94599643Y-73072919D01*
G75*
G02*
X94953197Y-73072919I176777J-176777D01*
G01*
X95837081Y-73956803D01*
G75*
G02*
X95837081Y-74310357I-176777J-176777D01*
G01*
X95306751Y-74840687D01*
G75*
G02*
X94953197Y-74840687I-176777J176777D01*
G01*
G37*
%TD.AperFunction*%
%TO.P,D11,2*%
%TO.N,Net-(D11-Pad2)*%
%TA.AperFunction,SMDPad,CuDef*%
G36*
G01*
X96933095Y-72860789D02*
X96049211Y-71976905D01*
G75*
G02*
X96049211Y-71623351I176777J176777D01*
G01*
X96579541Y-71093021D01*
G75*
G02*
X96933095Y-71093021I176777J-176777D01*
G01*
X97816979Y-71976905D01*
G75*
G02*
X97816979Y-72330459I-176777J-176777D01*
G01*
X97286649Y-72860789D01*
G75*
G02*
X96933095Y-72860789I-176777J176777D01*
G01*
G37*
%TD.AperFunction*%
%TD*%
%TO.P,D12,2*%
%TO.N,Net-(D12-Pad2)*%
%TA.AperFunction,SMDPad,CuDef*%
G36*
G01*
X95164147Y-70652312D02*
X94685793Y-69497463D01*
G75*
G02*
X94821092Y-69170822I230970J95671D01*
G01*
X95514002Y-68883809D01*
G75*
G02*
X95840643Y-69019108I95671J-230970D01*
G01*
X96318997Y-70173957D01*
G75*
G02*
X96183698Y-70500598I-230970J-95671D01*
G01*
X95490788Y-70787611D01*
G75*
G02*
X95164147Y-70652312I-95671J230970D01*
G01*
G37*
%TD.AperFunction*%
%TO.P,D12,1*%
%TO.N,Net-(D10-Pad1)*%
%TA.AperFunction,SMDPad,CuDef*%
G36*
G01*
X92577285Y-71723826D02*
X92098931Y-70568977D01*
G75*
G02*
X92234230Y-70242336I230970J95671D01*
G01*
X92927140Y-69955323D01*
G75*
G02*
X93253781Y-70090622I95671J-230970D01*
G01*
X93732135Y-71245471D01*
G75*
G02*
X93596836Y-71572112I-230970J-95671D01*
G01*
X92903926Y-71859125D01*
G75*
G02*
X92577285Y-71723826I-95671J230970D01*
G01*
G37*
%TD.AperFunction*%
%TD*%
%TO.P,D13,1*%
%TO.N,Net-(D10-Pad1)*%
%TA.AperFunction,SMDPad,CuDef*%
G36*
G01*
X91575000Y-67935000D02*
X91575000Y-66685000D01*
G75*
G02*
X91825000Y-66435000I250000J0D01*
G01*
X92575000Y-66435000D01*
G75*
G02*
X92825000Y-66685000I0J-250000D01*
G01*
X92825000Y-67935000D01*
G75*
G02*
X92575000Y-68185000I-250000J0D01*
G01*
X91825000Y-68185000D01*
G75*
G02*
X91575000Y-67935000I0J250000D01*
G01*
G37*
%TD.AperFunction*%
%TO.P,D13,2*%
%TO.N,Net-(D13-Pad2)*%
%TA.AperFunction,SMDPad,CuDef*%
G36*
G01*
X94375000Y-67935000D02*
X94375000Y-66685000D01*
G75*
G02*
X94625000Y-66435000I250000J0D01*
G01*
X95375000Y-66435000D01*
G75*
G02*
X95625000Y-66685000I0J-250000D01*
G01*
X95625000Y-67935000D01*
G75*
G02*
X95375000Y-68185000I-250000J0D01*
G01*
X94625000Y-68185000D01*
G75*
G02*
X94375000Y-67935000I0J250000D01*
G01*
G37*
%TD.AperFunction*%
%TD*%
%TO.P,D14,2*%
%TO.N,Net-(D14-Pad2)*%
%TA.AperFunction,SMDPad,CuDef*%
G36*
G01*
X94685793Y-65122537D02*
X95164147Y-63967688D01*
G75*
G02*
X95490788Y-63832389I230970J-95671D01*
G01*
X96183698Y-64119402D01*
G75*
G02*
X96318997Y-64446043I-95671J-230970D01*
G01*
X95840643Y-65600892D01*
G75*
G02*
X95514002Y-65736191I-230970J95671D01*
G01*
X94821092Y-65449178D01*
G75*
G02*
X94685793Y-65122537I95671J230970D01*
G01*
G37*
%TD.AperFunction*%
%TO.P,D14,1*%
%TO.N,Net-(D10-Pad1)*%
%TA.AperFunction,SMDPad,CuDef*%
G36*
G01*
X92098931Y-64051023D02*
X92577285Y-62896174D01*
G75*
G02*
X92903926Y-62760875I230970J-95671D01*
G01*
X93596836Y-63047888D01*
G75*
G02*
X93732135Y-63374529I-95671J-230970D01*
G01*
X93253781Y-64529378D01*
G75*
G02*
X92927140Y-64664677I-230970J95671D01*
G01*
X92234230Y-64377664D01*
G75*
G02*
X92098931Y-64051023I95671J230970D01*
G01*
G37*
%TD.AperFunction*%
%TD*%
%TO.P,D15,1*%
%TO.N,Net-(D10-Pad1)*%
%TA.AperFunction,SMDPad,CuDef*%
G36*
G01*
X94069313Y-60663197D02*
X94953197Y-59779313D01*
G75*
G02*
X95306751Y-59779313I176777J-176777D01*
G01*
X95837081Y-60309643D01*
G75*
G02*
X95837081Y-60663197I-176777J-176777D01*
G01*
X94953197Y-61547081D01*
G75*
G02*
X94599643Y-61547081I-176777J176777D01*
G01*
X94069313Y-61016751D01*
G75*
G02*
X94069313Y-60663197I176777J176777D01*
G01*
G37*
%TD.AperFunction*%
%TO.P,D15,2*%
%TO.N,Net-(D15-Pad2)*%
%TA.AperFunction,SMDPad,CuDef*%
G36*
G01*
X96049211Y-62643095D02*
X96933095Y-61759211D01*
G75*
G02*
X97286649Y-61759211I176777J-176777D01*
G01*
X97816979Y-62289541D01*
G75*
G02*
X97816979Y-62643095I-176777J-176777D01*
G01*
X96933095Y-63526979D01*
G75*
G02*
X96579541Y-63526979I-176777J176777D01*
G01*
X96049211Y-62996649D01*
G75*
G02*
X96049211Y-62643095I176777J176777D01*
G01*
G37*
%TD.AperFunction*%
%TD*%
%TO.P,D16,2*%
%TO.N,Net-(D16-Pad2)*%
%TA.AperFunction,SMDPad,CuDef*%
G36*
G01*
X98257688Y-60874147D02*
X99412537Y-60395793D01*
G75*
G02*
X99739178Y-60531092I95671J-230970D01*
G01*
X100026191Y-61224002D01*
G75*
G02*
X99890892Y-61550643I-230970J-95671D01*
G01*
X98736043Y-62028997D01*
G75*
G02*
X98409402Y-61893698I-95671J230970D01*
G01*
X98122389Y-61200788D01*
G75*
G02*
X98257688Y-60874147I230970J95671D01*
G01*
G37*
%TD.AperFunction*%
%TO.P,D16,1*%
%TO.N,Net-(D10-Pad1)*%
%TA.AperFunction,SMDPad,CuDef*%
G36*
G01*
X97186174Y-58287285D02*
X98341023Y-57808931D01*
G75*
G02*
X98667664Y-57944230I95671J-230970D01*
G01*
X98954677Y-58637140D01*
G75*
G02*
X98819378Y-58963781I-230970J-95671D01*
G01*
X97664529Y-59442135D01*
G75*
G02*
X97337888Y-59306836I-95671J230970D01*
G01*
X97050875Y-58613926D01*
G75*
G02*
X97186174Y-58287285I230970J95671D01*
G01*
G37*
%TD.AperFunction*%
%TD*%
D10*
%TO.P,J1,1*%
%TO.N,A*%
X69850000Y-60960000D03*
D11*
%TO.P,J1,2*%
%TO.N,CLK*%
X72390000Y-60960000D03*
%TO.P,J1,3*%
%TO.N,B*%
X69850000Y-63500000D03*
%TO.P,J1,4*%
%TO.N,SER*%
X72390000Y-63500000D03*
%TO.P,J1,5*%
%TO.N,BTN1*%
X69850000Y-66040000D03*
%TO.P,J1,6*%
%TO.N,LAT*%
X72390000Y-66040000D03*
%TO.P,J1,7*%
%TO.N,BTN2*%
X69850000Y-68580000D03*
%TO.P,J1,8*%
%TO.N,OE*%
X72390000Y-68580000D03*
%TO.P,J1,9*%
%TO.N,GND*%
X69850000Y-71120000D03*
%TO.P,J1,10*%
X72390000Y-71120000D03*
%TO.P,J1,11*%
%TO.N,VCC*%
X69850000Y-73660000D03*
%TO.P,J1,12*%
X72390000Y-73660000D03*
%TD*%
D12*
%TO.P,Q1,1*%
%TO.N,A*%
X103140000Y-66360000D03*
%TO.P,Q1,2*%
%TO.N,GND*%
X103140000Y-68260000D03*
%TO.P,Q1,3*%
%TO.N,Net-(D1-Pad1)*%
X105140000Y-67310000D03*
%TD*%
%TO.P,Q2,3*%
%TO.N,Net-(D10-Pad1)*%
X98060000Y-67310000D03*
%TO.P,Q2,2*%
%TO.N,GND*%
X100060000Y-66360000D03*
%TO.P,Q2,1*%
%TO.N,B*%
X100060000Y-68260000D03*
%TD*%
%TO.P,R1,1*%
%TO.N,BTN1*%
%TA.AperFunction,SMDPad,CuDef*%
G36*
G01*
X113820000Y-59239998D02*
X113820000Y-60140002D01*
G75*
G02*
X113570002Y-60390000I-249998J0D01*
G01*
X113044998Y-60390000D01*
G75*
G02*
X112795000Y-60140002I0J249998D01*
G01*
X112795000Y-59239998D01*
G75*
G02*
X113044998Y-58990000I249998J0D01*
G01*
X113570002Y-58990000D01*
G75*
G02*
X113820000Y-59239998I0J-249998D01*
G01*
G37*
%TD.AperFunction*%
%TO.P,R1,2*%
%TO.N,GND*%
%TA.AperFunction,SMDPad,CuDef*%
G36*
G01*
X111995000Y-59239998D02*
X111995000Y-60140002D01*
G75*
G02*
X111745002Y-60390000I-249998J0D01*
G01*
X111219998Y-60390000D01*
G75*
G02*
X110970000Y-60140002I0J249998D01*
G01*
X110970000Y-59239998D01*
G75*
G02*
X111219998Y-58990000I249998J0D01*
G01*
X111745002Y-58990000D01*
G75*
G02*
X111995000Y-59239998I0J-249998D01*
G01*
G37*
%TD.AperFunction*%
%TD*%
%TO.P,R2,2*%
%TO.N,GND*%
%TA.AperFunction,SMDPad,CuDef*%
G36*
G01*
X111995000Y-74479998D02*
X111995000Y-75380002D01*
G75*
G02*
X111745002Y-75630000I-249998J0D01*
G01*
X111219998Y-75630000D01*
G75*
G02*
X110970000Y-75380002I0J249998D01*
G01*
X110970000Y-74479998D01*
G75*
G02*
X111219998Y-74230000I249998J0D01*
G01*
X111745002Y-74230000D01*
G75*
G02*
X111995000Y-74479998I0J-249998D01*
G01*
G37*
%TD.AperFunction*%
%TO.P,R2,1*%
%TO.N,BTN2*%
%TA.AperFunction,SMDPad,CuDef*%
G36*
G01*
X113820000Y-74479998D02*
X113820000Y-75380002D01*
G75*
G02*
X113570002Y-75630000I-249998J0D01*
G01*
X113044998Y-75630000D01*
G75*
G02*
X112795000Y-75380002I0J249998D01*
G01*
X112795000Y-74479998D01*
G75*
G02*
X113044998Y-74230000I249998J0D01*
G01*
X113570002Y-74230000D01*
G75*
G02*
X113820000Y-74479998I0J-249998D01*
G01*
G37*
%TD.AperFunction*%
%TD*%
%TO.P,R3,1*%
%TO.N,Net-(D1-Pad2)*%
%TA.AperFunction,SMDPad,CuDef*%
G36*
G01*
X89055000Y-59874998D02*
X89055000Y-60775002D01*
G75*
G02*
X88805002Y-61025000I-249998J0D01*
G01*
X88279998Y-61025000D01*
G75*
G02*
X88030000Y-60775002I0J249998D01*
G01*
X88030000Y-59874998D01*
G75*
G02*
X88279998Y-59625000I249998J0D01*
G01*
X88805002Y-59625000D01*
G75*
G02*
X89055000Y-59874998I0J-249998D01*
G01*
G37*
%TD.AperFunction*%
%TO.P,R3,2*%
%TO.N,LED1*%
%TA.AperFunction,SMDPad,CuDef*%
G36*
G01*
X87230000Y-59874998D02*
X87230000Y-60775002D01*
G75*
G02*
X86980002Y-61025000I-249998J0D01*
G01*
X86454998Y-61025000D01*
G75*
G02*
X86205000Y-60775002I0J249998D01*
G01*
X86205000Y-59874998D01*
G75*
G02*
X86454998Y-59625000I249998J0D01*
G01*
X86980002Y-59625000D01*
G75*
G02*
X87230000Y-59874998I0J-249998D01*
G01*
G37*
%TD.AperFunction*%
%TD*%
%TO.P,R4,1*%
%TO.N,Net-(D10-Pad2)*%
%TA.AperFunction,SMDPad,CuDef*%
G36*
G01*
X89055000Y-61779998D02*
X89055000Y-62680002D01*
G75*
G02*
X88805002Y-62930000I-249998J0D01*
G01*
X88279998Y-62930000D01*
G75*
G02*
X88030000Y-62680002I0J249998D01*
G01*
X88030000Y-61779998D01*
G75*
G02*
X88279998Y-61530000I249998J0D01*
G01*
X88805002Y-61530000D01*
G75*
G02*
X89055000Y-61779998I0J-249998D01*
G01*
G37*
%TD.AperFunction*%
%TO.P,R4,2*%
%TO.N,LED2*%
%TA.AperFunction,SMDPad,CuDef*%
G36*
G01*
X87230000Y-61779998D02*
X87230000Y-62680002D01*
G75*
G02*
X86980002Y-62930000I-249998J0D01*
G01*
X86454998Y-62930000D01*
G75*
G02*
X86205000Y-62680002I0J249998D01*
G01*
X86205000Y-61779998D01*
G75*
G02*
X86454998Y-61530000I249998J0D01*
G01*
X86980002Y-61530000D01*
G75*
G02*
X87230000Y-61779998I0J-249998D01*
G01*
G37*
%TD.AperFunction*%
%TD*%
%TO.P,R5,2*%
%TO.N,LED3*%
%TA.AperFunction,SMDPad,CuDef*%
G36*
G01*
X87230000Y-63684998D02*
X87230000Y-64585002D01*
G75*
G02*
X86980002Y-64835000I-249998J0D01*
G01*
X86454998Y-64835000D01*
G75*
G02*
X86205000Y-64585002I0J249998D01*
G01*
X86205000Y-63684998D01*
G75*
G02*
X86454998Y-63435000I249998J0D01*
G01*
X86980002Y-63435000D01*
G75*
G02*
X87230000Y-63684998I0J-249998D01*
G01*
G37*
%TD.AperFunction*%
%TO.P,R5,1*%
%TO.N,Net-(D11-Pad2)*%
%TA.AperFunction,SMDPad,CuDef*%
G36*
G01*
X89055000Y-63684998D02*
X89055000Y-64585002D01*
G75*
G02*
X88805002Y-64835000I-249998J0D01*
G01*
X88279998Y-64835000D01*
G75*
G02*
X88030000Y-64585002I0J249998D01*
G01*
X88030000Y-63684998D01*
G75*
G02*
X88279998Y-63435000I249998J0D01*
G01*
X88805002Y-63435000D01*
G75*
G02*
X89055000Y-63684998I0J-249998D01*
G01*
G37*
%TD.AperFunction*%
%TD*%
%TO.P,R6,2*%
%TO.N,LED4*%
%TA.AperFunction,SMDPad,CuDef*%
G36*
G01*
X87230000Y-65589998D02*
X87230000Y-66490002D01*
G75*
G02*
X86980002Y-66740000I-249998J0D01*
G01*
X86454998Y-66740000D01*
G75*
G02*
X86205000Y-66490002I0J249998D01*
G01*
X86205000Y-65589998D01*
G75*
G02*
X86454998Y-65340000I249998J0D01*
G01*
X86980002Y-65340000D01*
G75*
G02*
X87230000Y-65589998I0J-249998D01*
G01*
G37*
%TD.AperFunction*%
%TO.P,R6,1*%
%TO.N,Net-(D12-Pad2)*%
%TA.AperFunction,SMDPad,CuDef*%
G36*
G01*
X89055000Y-65589998D02*
X89055000Y-66490002D01*
G75*
G02*
X88805002Y-66740000I-249998J0D01*
G01*
X88279998Y-66740000D01*
G75*
G02*
X88030000Y-66490002I0J249998D01*
G01*
X88030000Y-65589998D01*
G75*
G02*
X88279998Y-65340000I249998J0D01*
G01*
X88805002Y-65340000D01*
G75*
G02*
X89055000Y-65589998I0J-249998D01*
G01*
G37*
%TD.AperFunction*%
%TD*%
%TO.P,R7,1*%
%TO.N,Net-(D13-Pad2)*%
%TA.AperFunction,SMDPad,CuDef*%
G36*
G01*
X89055000Y-68129998D02*
X89055000Y-69030002D01*
G75*
G02*
X88805002Y-69280000I-249998J0D01*
G01*
X88279998Y-69280000D01*
G75*
G02*
X88030000Y-69030002I0J249998D01*
G01*
X88030000Y-68129998D01*
G75*
G02*
X88279998Y-67880000I249998J0D01*
G01*
X88805002Y-67880000D01*
G75*
G02*
X89055000Y-68129998I0J-249998D01*
G01*
G37*
%TD.AperFunction*%
%TO.P,R7,2*%
%TO.N,LED5*%
%TA.AperFunction,SMDPad,CuDef*%
G36*
G01*
X87230000Y-68129998D02*
X87230000Y-69030002D01*
G75*
G02*
X86980002Y-69280000I-249998J0D01*
G01*
X86454998Y-69280000D01*
G75*
G02*
X86205000Y-69030002I0J249998D01*
G01*
X86205000Y-68129998D01*
G75*
G02*
X86454998Y-67880000I249998J0D01*
G01*
X86980002Y-67880000D01*
G75*
G02*
X87230000Y-68129998I0J-249998D01*
G01*
G37*
%TD.AperFunction*%
%TD*%
%TO.P,R8,2*%
%TO.N,LED6*%
%TA.AperFunction,SMDPad,CuDef*%
G36*
G01*
X87230000Y-70034998D02*
X87230000Y-70935002D01*
G75*
G02*
X86980002Y-71185000I-249998J0D01*
G01*
X86454998Y-71185000D01*
G75*
G02*
X86205000Y-70935002I0J249998D01*
G01*
X86205000Y-70034998D01*
G75*
G02*
X86454998Y-69785000I249998J0D01*
G01*
X86980002Y-69785000D01*
G75*
G02*
X87230000Y-70034998I0J-249998D01*
G01*
G37*
%TD.AperFunction*%
%TO.P,R8,1*%
%TO.N,Net-(D14-Pad2)*%
%TA.AperFunction,SMDPad,CuDef*%
G36*
G01*
X89055000Y-70034998D02*
X89055000Y-70935002D01*
G75*
G02*
X88805002Y-71185000I-249998J0D01*
G01*
X88279998Y-71185000D01*
G75*
G02*
X88030000Y-70935002I0J249998D01*
G01*
X88030000Y-70034998D01*
G75*
G02*
X88279998Y-69785000I249998J0D01*
G01*
X88805002Y-69785000D01*
G75*
G02*
X89055000Y-70034998I0J-249998D01*
G01*
G37*
%TD.AperFunction*%
%TD*%
%TO.P,R9,2*%
%TO.N,LED7*%
%TA.AperFunction,SMDPad,CuDef*%
G36*
G01*
X87230000Y-71939998D02*
X87230000Y-72840002D01*
G75*
G02*
X86980002Y-73090000I-249998J0D01*
G01*
X86454998Y-73090000D01*
G75*
G02*
X86205000Y-72840002I0J249998D01*
G01*
X86205000Y-71939998D01*
G75*
G02*
X86454998Y-71690000I249998J0D01*
G01*
X86980002Y-71690000D01*
G75*
G02*
X87230000Y-71939998I0J-249998D01*
G01*
G37*
%TD.AperFunction*%
%TO.P,R9,1*%
%TO.N,Net-(D15-Pad2)*%
%TA.AperFunction,SMDPad,CuDef*%
G36*
G01*
X89055000Y-71939998D02*
X89055000Y-72840002D01*
G75*
G02*
X88805002Y-73090000I-249998J0D01*
G01*
X88279998Y-73090000D01*
G75*
G02*
X88030000Y-72840002I0J249998D01*
G01*
X88030000Y-71939998D01*
G75*
G02*
X88279998Y-71690000I249998J0D01*
G01*
X88805002Y-71690000D01*
G75*
G02*
X89055000Y-71939998I0J-249998D01*
G01*
G37*
%TD.AperFunction*%
%TD*%
%TO.P,R10,1*%
%TO.N,Net-(D16-Pad2)*%
%TA.AperFunction,SMDPad,CuDef*%
G36*
G01*
X89055000Y-73844998D02*
X89055000Y-74745002D01*
G75*
G02*
X88805002Y-74995000I-249998J0D01*
G01*
X88279998Y-74995000D01*
G75*
G02*
X88030000Y-74745002I0J249998D01*
G01*
X88030000Y-73844998D01*
G75*
G02*
X88279998Y-73595000I249998J0D01*
G01*
X88805002Y-73595000D01*
G75*
G02*
X89055000Y-73844998I0J-249998D01*
G01*
G37*
%TD.AperFunction*%
%TO.P,R10,2*%
%TO.N,LED8*%
%TA.AperFunction,SMDPad,CuDef*%
G36*
G01*
X87230000Y-73844998D02*
X87230000Y-74745002D01*
G75*
G02*
X86980002Y-74995000I-249998J0D01*
G01*
X86454998Y-74995000D01*
G75*
G02*
X86205000Y-74745002I0J249998D01*
G01*
X86205000Y-73844998D01*
G75*
G02*
X86454998Y-73595000I249998J0D01*
G01*
X86980002Y-73595000D01*
G75*
G02*
X87230000Y-73844998I0J-249998D01*
G01*
G37*
%TD.AperFunction*%
%TD*%
%TO.P,SW1,2*%
%TO.N,VCC*%
%TA.AperFunction,SMDPad,CuDef*%
G36*
G01*
X118840000Y-65250000D02*
X118840000Y-64750000D01*
G75*
G02*
X119090000Y-64500000I250000J0D01*
G01*
X120590000Y-64500000D01*
G75*
G02*
X120840000Y-64750000I0J-250000D01*
G01*
X120840000Y-65250000D01*
G75*
G02*
X120590000Y-65500000I-250000J0D01*
G01*
X119090000Y-65500000D01*
G75*
G02*
X118840000Y-65250000I0J250000D01*
G01*
G37*
%TD.AperFunction*%
%TO.P,SW1,1*%
%TO.N,BTN1*%
%TA.AperFunction,SMDPad,CuDef*%
G36*
G01*
X118840000Y-62250000D02*
X118840000Y-61750000D01*
G75*
G02*
X119090000Y-61500000I250000J0D01*
G01*
X120590000Y-61500000D01*
G75*
G02*
X120840000Y-61750000I0J-250000D01*
G01*
X120840000Y-62250000D01*
G75*
G02*
X120590000Y-62500000I-250000J0D01*
G01*
X119090000Y-62500000D01*
G75*
G02*
X118840000Y-62250000I0J250000D01*
G01*
G37*
%TD.AperFunction*%
%TO.P,SW1,2*%
%TO.N,VCC*%
%TA.AperFunction,SMDPad,CuDef*%
G36*
G01*
X112840000Y-65250000D02*
X112840000Y-64750000D01*
G75*
G02*
X113090000Y-64500000I250000J0D01*
G01*
X114590000Y-64500000D01*
G75*
G02*
X114840000Y-64750000I0J-250000D01*
G01*
X114840000Y-65250000D01*
G75*
G02*
X114590000Y-65500000I-250000J0D01*
G01*
X113090000Y-65500000D01*
G75*
G02*
X112840000Y-65250000I0J250000D01*
G01*
G37*
%TD.AperFunction*%
%TO.P,SW1,1*%
%TO.N,BTN1*%
%TA.AperFunction,SMDPad,CuDef*%
G36*
G01*
X112840000Y-62250000D02*
X112840000Y-61750000D01*
G75*
G02*
X113090000Y-61500000I250000J0D01*
G01*
X114590000Y-61500000D01*
G75*
G02*
X114840000Y-61750000I0J-250000D01*
G01*
X114840000Y-62250000D01*
G75*
G02*
X114590000Y-62500000I-250000J0D01*
G01*
X113090000Y-62500000D01*
G75*
G02*
X112840000Y-62250000I0J250000D01*
G01*
G37*
%TD.AperFunction*%
%TD*%
%TO.P,SW2,1*%
%TO.N,BTN2*%
%TA.AperFunction,SMDPad,CuDef*%
G36*
G01*
X120840000Y-72370000D02*
X120840000Y-72870000D01*
G75*
G02*
X120590000Y-73120000I-250000J0D01*
G01*
X119090000Y-73120000D01*
G75*
G02*
X118840000Y-72870000I0J250000D01*
G01*
X118840000Y-72370000D01*
G75*
G02*
X119090000Y-72120000I250000J0D01*
G01*
X120590000Y-72120000D01*
G75*
G02*
X120840000Y-72370000I0J-250000D01*
G01*
G37*
%TD.AperFunction*%
%TO.P,SW2,2*%
%TO.N,VCC*%
%TA.AperFunction,SMDPad,CuDef*%
G36*
G01*
X120840000Y-69370000D02*
X120840000Y-69870000D01*
G75*
G02*
X120590000Y-70120000I-250000J0D01*
G01*
X119090000Y-70120000D01*
G75*
G02*
X118840000Y-69870000I0J250000D01*
G01*
X118840000Y-69370000D01*
G75*
G02*
X119090000Y-69120000I250000J0D01*
G01*
X120590000Y-69120000D01*
G75*
G02*
X120840000Y-69370000I0J-250000D01*
G01*
G37*
%TD.AperFunction*%
%TO.P,SW2,1*%
%TO.N,BTN2*%
%TA.AperFunction,SMDPad,CuDef*%
G36*
G01*
X114840000Y-72370000D02*
X114840000Y-72870000D01*
G75*
G02*
X114590000Y-73120000I-250000J0D01*
G01*
X113090000Y-73120000D01*
G75*
G02*
X112840000Y-72870000I0J250000D01*
G01*
X112840000Y-72370000D01*
G75*
G02*
X113090000Y-72120000I250000J0D01*
G01*
X114590000Y-72120000D01*
G75*
G02*
X114840000Y-72370000I0J-250000D01*
G01*
G37*
%TD.AperFunction*%
%TO.P,SW2,2*%
%TO.N,VCC*%
%TA.AperFunction,SMDPad,CuDef*%
G36*
G01*
X114840000Y-69370000D02*
X114840000Y-69870000D01*
G75*
G02*
X114590000Y-70120000I-250000J0D01*
G01*
X113090000Y-70120000D01*
G75*
G02*
X112840000Y-69870000I0J250000D01*
G01*
X112840000Y-69370000D01*
G75*
G02*
X113090000Y-69120000I250000J0D01*
G01*
X114590000Y-69120000D01*
G75*
G02*
X114840000Y-69370000I0J-250000D01*
G01*
G37*
%TD.AperFunction*%
%TD*%
%TO.P,U1,1*%
%TO.N,LED2*%
%TA.AperFunction,SMDPad,CuDef*%
G36*
G01*
X76560000Y-60475000D02*
X76560000Y-60175000D01*
G75*
G02*
X76710000Y-60025000I150000J0D01*
G01*
X78360000Y-60025000D01*
G75*
G02*
X78510000Y-60175000I0J-150000D01*
G01*
X78510000Y-60475000D01*
G75*
G02*
X78360000Y-60625000I-150000J0D01*
G01*
X76710000Y-60625000D01*
G75*
G02*
X76560000Y-60475000I0J150000D01*
G01*
G37*
%TD.AperFunction*%
%TO.P,U1,2*%
%TO.N,LED3*%
%TA.AperFunction,SMDPad,CuDef*%
G36*
G01*
X76560000Y-61745000D02*
X76560000Y-61445000D01*
G75*
G02*
X76710000Y-61295000I150000J0D01*
G01*
X78360000Y-61295000D01*
G75*
G02*
X78510000Y-61445000I0J-150000D01*
G01*
X78510000Y-61745000D01*
G75*
G02*
X78360000Y-61895000I-150000J0D01*
G01*
X76710000Y-61895000D01*
G75*
G02*
X76560000Y-61745000I0J150000D01*
G01*
G37*
%TD.AperFunction*%
%TO.P,U1,3*%
%TO.N,LED4*%
%TA.AperFunction,SMDPad,CuDef*%
G36*
G01*
X76560000Y-63015000D02*
X76560000Y-62715000D01*
G75*
G02*
X76710000Y-62565000I150000J0D01*
G01*
X78360000Y-62565000D01*
G75*
G02*
X78510000Y-62715000I0J-150000D01*
G01*
X78510000Y-63015000D01*
G75*
G02*
X78360000Y-63165000I-150000J0D01*
G01*
X76710000Y-63165000D01*
G75*
G02*
X76560000Y-63015000I0J150000D01*
G01*
G37*
%TD.AperFunction*%
%TO.P,U1,4*%
%TO.N,LED5*%
%TA.AperFunction,SMDPad,CuDef*%
G36*
G01*
X76560000Y-64285000D02*
X76560000Y-63985000D01*
G75*
G02*
X76710000Y-63835000I150000J0D01*
G01*
X78360000Y-63835000D01*
G75*
G02*
X78510000Y-63985000I0J-150000D01*
G01*
X78510000Y-64285000D01*
G75*
G02*
X78360000Y-64435000I-150000J0D01*
G01*
X76710000Y-64435000D01*
G75*
G02*
X76560000Y-64285000I0J150000D01*
G01*
G37*
%TD.AperFunction*%
%TO.P,U1,5*%
%TO.N,LED6*%
%TA.AperFunction,SMDPad,CuDef*%
G36*
G01*
X76560000Y-65555000D02*
X76560000Y-65255000D01*
G75*
G02*
X76710000Y-65105000I150000J0D01*
G01*
X78360000Y-65105000D01*
G75*
G02*
X78510000Y-65255000I0J-150000D01*
G01*
X78510000Y-65555000D01*
G75*
G02*
X78360000Y-65705000I-150000J0D01*
G01*
X76710000Y-65705000D01*
G75*
G02*
X76560000Y-65555000I0J150000D01*
G01*
G37*
%TD.AperFunction*%
%TO.P,U1,6*%
%TO.N,LED7*%
%TA.AperFunction,SMDPad,CuDef*%
G36*
G01*
X76560000Y-66825000D02*
X76560000Y-66525000D01*
G75*
G02*
X76710000Y-66375000I150000J0D01*
G01*
X78360000Y-66375000D01*
G75*
G02*
X78510000Y-66525000I0J-150000D01*
G01*
X78510000Y-66825000D01*
G75*
G02*
X78360000Y-66975000I-150000J0D01*
G01*
X76710000Y-66975000D01*
G75*
G02*
X76560000Y-66825000I0J150000D01*
G01*
G37*
%TD.AperFunction*%
%TO.P,U1,7*%
%TO.N,LED8*%
%TA.AperFunction,SMDPad,CuDef*%
G36*
G01*
X76560000Y-68095000D02*
X76560000Y-67795000D01*
G75*
G02*
X76710000Y-67645000I150000J0D01*
G01*
X78360000Y-67645000D01*
G75*
G02*
X78510000Y-67795000I0J-150000D01*
G01*
X78510000Y-68095000D01*
G75*
G02*
X78360000Y-68245000I-150000J0D01*
G01*
X76710000Y-68245000D01*
G75*
G02*
X76560000Y-68095000I0J150000D01*
G01*
G37*
%TD.AperFunction*%
%TO.P,U1,8*%
%TO.N,GND*%
%TA.AperFunction,SMDPad,CuDef*%
G36*
G01*
X76560000Y-69365000D02*
X76560000Y-69065000D01*
G75*
G02*
X76710000Y-68915000I150000J0D01*
G01*
X78360000Y-68915000D01*
G75*
G02*
X78510000Y-69065000I0J-150000D01*
G01*
X78510000Y-69365000D01*
G75*
G02*
X78360000Y-69515000I-150000J0D01*
G01*
X76710000Y-69515000D01*
G75*
G02*
X76560000Y-69365000I0J150000D01*
G01*
G37*
%TD.AperFunction*%
%TO.P,U1,9*%
%TO.N,Net-(U1-Pad9)*%
%TA.AperFunction,SMDPad,CuDef*%
G36*
G01*
X81510000Y-69365000D02*
X81510000Y-69065000D01*
G75*
G02*
X81660000Y-68915000I150000J0D01*
G01*
X83310000Y-68915000D01*
G75*
G02*
X83460000Y-69065000I0J-150000D01*
G01*
X83460000Y-69365000D01*
G75*
G02*
X83310000Y-69515000I-150000J0D01*
G01*
X81660000Y-69515000D01*
G75*
G02*
X81510000Y-69365000I0J150000D01*
G01*
G37*
%TD.AperFunction*%
%TO.P,U1,10*%
%TO.N,VCC*%
%TA.AperFunction,SMDPad,CuDef*%
G36*
G01*
X81510000Y-68095000D02*
X81510000Y-67795000D01*
G75*
G02*
X81660000Y-67645000I150000J0D01*
G01*
X83310000Y-67645000D01*
G75*
G02*
X83460000Y-67795000I0J-150000D01*
G01*
X83460000Y-68095000D01*
G75*
G02*
X83310000Y-68245000I-150000J0D01*
G01*
X81660000Y-68245000D01*
G75*
G02*
X81510000Y-68095000I0J150000D01*
G01*
G37*
%TD.AperFunction*%
%TO.P,U1,11*%
%TO.N,CLK*%
%TA.AperFunction,SMDPad,CuDef*%
G36*
G01*
X81510000Y-66825000D02*
X81510000Y-66525000D01*
G75*
G02*
X81660000Y-66375000I150000J0D01*
G01*
X83310000Y-66375000D01*
G75*
G02*
X83460000Y-66525000I0J-150000D01*
G01*
X83460000Y-66825000D01*
G75*
G02*
X83310000Y-66975000I-150000J0D01*
G01*
X81660000Y-66975000D01*
G75*
G02*
X81510000Y-66825000I0J150000D01*
G01*
G37*
%TD.AperFunction*%
%TO.P,U1,12*%
%TO.N,LAT*%
%TA.AperFunction,SMDPad,CuDef*%
G36*
G01*
X81510000Y-65555000D02*
X81510000Y-65255000D01*
G75*
G02*
X81660000Y-65105000I150000J0D01*
G01*
X83310000Y-65105000D01*
G75*
G02*
X83460000Y-65255000I0J-150000D01*
G01*
X83460000Y-65555000D01*
G75*
G02*
X83310000Y-65705000I-150000J0D01*
G01*
X81660000Y-65705000D01*
G75*
G02*
X81510000Y-65555000I0J150000D01*
G01*
G37*
%TD.AperFunction*%
%TO.P,U1,13*%
%TO.N,OE*%
%TA.AperFunction,SMDPad,CuDef*%
G36*
G01*
X81510000Y-64285000D02*
X81510000Y-63985000D01*
G75*
G02*
X81660000Y-63835000I150000J0D01*
G01*
X83310000Y-63835000D01*
G75*
G02*
X83460000Y-63985000I0J-150000D01*
G01*
X83460000Y-64285000D01*
G75*
G02*
X83310000Y-64435000I-150000J0D01*
G01*
X81660000Y-64435000D01*
G75*
G02*
X81510000Y-64285000I0J150000D01*
G01*
G37*
%TD.AperFunction*%
%TO.P,U1,14*%
%TO.N,SER*%
%TA.AperFunction,SMDPad,CuDef*%
G36*
G01*
X81510000Y-63015000D02*
X81510000Y-62715000D01*
G75*
G02*
X81660000Y-62565000I150000J0D01*
G01*
X83310000Y-62565000D01*
G75*
G02*
X83460000Y-62715000I0J-150000D01*
G01*
X83460000Y-63015000D01*
G75*
G02*
X83310000Y-63165000I-150000J0D01*
G01*
X81660000Y-63165000D01*
G75*
G02*
X81510000Y-63015000I0J150000D01*
G01*
G37*
%TD.AperFunction*%
%TO.P,U1,15*%
%TO.N,LED1*%
%TA.AperFunction,SMDPad,CuDef*%
G36*
G01*
X81510000Y-61745000D02*
X81510000Y-61445000D01*
G75*
G02*
X81660000Y-61295000I150000J0D01*
G01*
X83310000Y-61295000D01*
G75*
G02*
X83460000Y-61445000I0J-150000D01*
G01*
X83460000Y-61745000D01*
G75*
G02*
X83310000Y-61895000I-150000J0D01*
G01*
X81660000Y-61895000D01*
G75*
G02*
X81510000Y-61745000I0J150000D01*
G01*
G37*
%TD.AperFunction*%
%TO.P,U1,16*%
%TO.N,VCC*%
%TA.AperFunction,SMDPad,CuDef*%
G36*
G01*
X81510000Y-60475000D02*
X81510000Y-60175000D01*
G75*
G02*
X81660000Y-60025000I150000J0D01*
G01*
X83310000Y-60025000D01*
G75*
G02*
X83460000Y-60175000I0J-150000D01*
G01*
X83460000Y-60475000D01*
G75*
G02*
X83310000Y-60625000I-150000J0D01*
G01*
X81660000Y-60625000D01*
G75*
G02*
X81510000Y-60475000I0J150000D01*
G01*
G37*
%TD.AperFunction*%
%TD*%
D13*
%TO.N,VCC*%
X81217808Y-68459419D03*
X81915000Y-72390000D03*
X106574847Y-77120153D03*
X92710000Y-76740010D03*
X81915000Y-74385000D03*
X73752885Y-60415000D03*
%TO.N,BTN1*%
X107950000Y-76200000D03*
X93980000Y-75565000D03*
%TO.N,BTN2*%
X109220000Y-76200000D03*
X95250000Y-76290000D03*
%TO.N,GND*%
X101600000Y-67310000D03*
X78740000Y-71120000D03*
X90170000Y-67400000D03*
X90895000Y-64753079D03*
X110490000Y-59690000D03*
X70485000Y-58420000D03*
X75565000Y-69215000D03*
X112395000Y-73660000D03*
%TO.N,Net-(D1-Pad2)*%
X90805000Y-59055000D03*
X101999221Y-59159951D03*
%TO.N,Net-(D10-Pad2)*%
X102994299Y-64010701D03*
X99580616Y-71980286D03*
X91512108Y-59762108D03*
X104140000Y-59690000D03*
%TO.N,Net-(D11-Pad2)*%
X104297908Y-65172603D03*
X98229847Y-70680153D03*
X92219216Y-60469216D03*
X107315000Y-61595000D03*
%TO.N,Net-(D12-Pad2)*%
X104866106Y-66014566D03*
X100223716Y-70608836D03*
X92926324Y-61176324D03*
X108585000Y-62865000D03*
%TO.N,Net-(D13-Pad2)*%
X105410000Y-68580000D03*
X100875000Y-69850000D03*
X90170000Y-68580000D03*
X93345000Y-68580000D03*
%TO.N,Net-(D14-Pad2)*%
X104167807Y-71107349D03*
X99060000Y-64770000D03*
X90170000Y-70485000D03*
X108585000Y-70485000D03*
%TO.N,Net-(D15-Pad2)*%
X103155153Y-71120000D03*
X100133248Y-64743839D03*
X90170000Y-72390000D03*
X107315000Y-73025000D03*
%TO.N,Net-(D16-Pad2)*%
X102430153Y-70045153D03*
X101124526Y-64875645D03*
X90170000Y-74295000D03*
X104775000Y-74820050D03*
%TO.N,A*%
X101600000Y-66040000D03*
%TO.N,B*%
X97790000Y-65950000D03*
X74930000Y-58965000D03*
%TO.N,LAT*%
X74840000Y-65405000D03*
%TO.N,OE*%
X74295000Y-64225000D03*
%TD*%
D14*
%TO.N,VCC*%
X81732227Y-67945000D02*
X81217808Y-68459419D01*
X82485000Y-67945000D02*
X81732227Y-67945000D01*
X81915000Y-72390000D02*
X80960000Y-72390000D01*
X69850000Y-73660000D02*
X72390000Y-73660000D01*
X121165010Y-63674990D02*
X119840000Y-65000000D01*
X121165010Y-61511820D02*
X121165010Y-63674990D01*
X119343190Y-59690000D02*
X121165010Y-61511820D01*
X117155000Y-59690000D02*
X119343190Y-59690000D01*
X119840000Y-65000000D02*
X113840000Y-65000000D01*
X119840000Y-65000000D02*
X119840000Y-69620000D01*
X119840000Y-69620000D02*
X113840000Y-69620000D01*
X121165010Y-70945010D02*
X119840000Y-69620000D01*
X119343190Y-74930000D02*
X121165010Y-73108180D01*
X121165010Y-73108180D02*
X121165010Y-70945010D01*
X117155000Y-74930000D02*
X119343190Y-74930000D01*
X117155000Y-74930000D02*
X115159999Y-76925001D01*
X106769999Y-76925001D02*
X106574847Y-77120153D01*
X115159999Y-76925001D02*
X106769999Y-76925001D01*
X92710000Y-76740010D02*
X91714990Y-76740010D01*
X91440000Y-76465020D02*
X84720020Y-76465020D01*
X91714990Y-76740010D02*
X91440000Y-76465020D01*
X84720020Y-76465020D02*
X82550000Y-74295000D01*
X73025000Y-74295000D02*
X72390000Y-73660000D01*
X82550000Y-74295000D02*
X81915000Y-74295000D01*
X81915000Y-74295000D02*
X81915000Y-74385000D01*
X81915000Y-74295000D02*
X73025000Y-74295000D01*
X74467895Y-59699990D02*
X73752885Y-60415000D01*
%TO.N,BTN1*%
X113307500Y-59690000D02*
X115255000Y-59690000D01*
X113307500Y-61467500D02*
X113840000Y-62000000D01*
X113307500Y-59690000D02*
X113307500Y-61467500D01*
X113840000Y-62000000D02*
X119840000Y-62000000D01*
X112514990Y-63325010D02*
X112514990Y-70365010D01*
X113840000Y-62000000D02*
X112514990Y-63325010D01*
X112514990Y-70365010D02*
X109855000Y-73025000D01*
X109855000Y-73025000D02*
X109855000Y-74295000D01*
X109855000Y-74295000D02*
X107950000Y-76200000D01*
X78835010Y-68848262D02*
X78556758Y-68570010D01*
X78835010Y-69946420D02*
X78835010Y-68848262D01*
X76513242Y-68570010D02*
X75158233Y-67215001D01*
X83000010Y-70935010D02*
X79823599Y-70935009D01*
X78556758Y-68570010D02*
X76513242Y-68570010D01*
X83820000Y-71755000D02*
X83000010Y-70935010D01*
X71025001Y-67215001D02*
X69850000Y-66040000D01*
X83820000Y-73025000D02*
X83820000Y-71755000D01*
X86360000Y-75565000D02*
X83820000Y-73025000D01*
X75158233Y-67215001D02*
X71025001Y-67215001D01*
X79823599Y-70935009D02*
X78835010Y-69946420D01*
X93980000Y-75565000D02*
X86360000Y-75565000D01*
%TO.N,BTN2*%
X113307500Y-74930000D02*
X115255000Y-74930000D01*
X113307500Y-73152500D02*
X113840000Y-72620000D01*
X113307500Y-74930000D02*
X113307500Y-73152500D01*
X113840000Y-72620000D02*
X119840000Y-72620000D01*
X109220000Y-75666810D02*
X109220000Y-76200000D01*
X112266810Y-72620000D02*
X109220000Y-75666810D01*
X113840000Y-72620000D02*
X112266810Y-72620000D01*
X71120000Y-69850000D02*
X69850000Y-68580000D01*
X74930000Y-69850000D02*
X71120000Y-69850000D01*
X78738590Y-73660000D02*
X76835000Y-71756410D01*
X83185000Y-73660000D02*
X78738590Y-73660000D01*
X85540010Y-76015010D02*
X83185000Y-73660000D01*
X93160010Y-76015010D02*
X85540010Y-76015010D01*
X76835000Y-71755000D02*
X74930000Y-69850000D01*
X76835000Y-71756410D02*
X76835000Y-71755000D01*
X93435000Y-76290000D02*
X93160010Y-76015010D01*
X95250000Y-76290000D02*
X93435000Y-76290000D01*
D15*
%TO.N,GND*%
X100650000Y-66360000D02*
X100060000Y-66360000D01*
X103140000Y-68260000D02*
X102550000Y-68260000D01*
X102550000Y-68260000D02*
X101600000Y-67310000D01*
X101600000Y-67310000D02*
X100650000Y-66360000D01*
D14*
X79060000Y-72390000D02*
X78105000Y-72390000D01*
X77535000Y-71820000D02*
X77535000Y-69215000D01*
X78105000Y-72390000D02*
X77535000Y-71820000D01*
X79060000Y-71440000D02*
X78740000Y-71120000D01*
X79060000Y-72390000D02*
X79060000Y-71440000D01*
X90895000Y-66675000D02*
X90895000Y-64753079D01*
X90170000Y-67400000D02*
X90895000Y-66675000D01*
X111482500Y-59690000D02*
X110490000Y-59690000D01*
X72390000Y-71120000D02*
X69850000Y-71120000D01*
X70104998Y-58420000D02*
X70485000Y-58420000D01*
X68674999Y-59849999D02*
X70104998Y-58420000D01*
X68674999Y-69944999D02*
X68674999Y-59849999D01*
X69850000Y-71120000D02*
X68674999Y-69944999D01*
X77535000Y-69215000D02*
X75565000Y-69215000D01*
X111482500Y-74572500D02*
X112395000Y-73660000D01*
X111482500Y-74930000D02*
X111482500Y-74572500D01*
%TO.N,Net-(D1-Pad1)*%
X109799990Y-66109990D02*
X111000000Y-67310000D01*
X106340010Y-66109990D02*
X109799990Y-66109990D01*
X105140000Y-67310000D02*
X106340010Y-66109990D01*
X101600000Y-57910000D02*
X105197224Y-58625533D01*
X105197224Y-58625533D02*
X108246803Y-60663197D01*
X108246803Y-60663197D02*
X110284467Y-63712776D01*
X110284467Y-63712776D02*
X111000000Y-67310000D01*
X111000000Y-67310000D02*
X110284467Y-70907224D01*
X110284467Y-70907224D02*
X108246803Y-73956803D01*
X108246803Y-73956803D02*
X105197224Y-75994467D01*
%TO.N,Net-(D1-Pad2)*%
X101600000Y-60710000D02*
X101600000Y-64135000D01*
X101600000Y-64135000D02*
X102870000Y-65405000D01*
X102870000Y-65405000D02*
X103505000Y-65405000D01*
X103915001Y-65815001D02*
X103915001Y-68804999D01*
X103505000Y-65405000D02*
X103915001Y-65815001D01*
X103915001Y-68804999D02*
X103505000Y-69215000D01*
X103505000Y-69215000D02*
X102235000Y-69215000D01*
X101600000Y-69850000D02*
X101600000Y-73910000D01*
X102235000Y-69215000D02*
X101600000Y-69850000D01*
X89535000Y-60325000D02*
X90805000Y-59055000D01*
X88542500Y-60325000D02*
X89535000Y-60325000D01*
X101999221Y-60310779D02*
X101600000Y-60710000D01*
X101999221Y-59159951D02*
X101999221Y-60310779D01*
%TO.N,Net-(D10-Pad2)*%
X104125710Y-62879290D02*
X102994299Y-64010701D01*
X104125710Y-61212395D02*
X104125710Y-62879290D01*
X99580616Y-72901279D02*
X99074290Y-73407605D01*
X99580616Y-71980286D02*
X99580616Y-72901279D01*
X89044216Y-62230000D02*
X91512108Y-59762108D01*
X88542500Y-62230000D02*
X89044216Y-62230000D01*
X104140000Y-61198105D02*
X104125710Y-61212395D01*
X104140000Y-59690000D02*
X104140000Y-61198105D01*
%TO.N,Net-(D11-Pad2)*%
X104297908Y-64612092D02*
X104297908Y-65172603D01*
X106266905Y-62643095D02*
X104297908Y-64612092D01*
X98229847Y-70680153D02*
X96933095Y-71976905D01*
X88553432Y-64135000D02*
X92219216Y-60469216D01*
X88542500Y-64135000D02*
X88553432Y-64135000D01*
X107315000Y-61595000D02*
X106266905Y-62643095D01*
%TO.N,Net-(D12-Pad2)*%
X106096382Y-64784290D02*
X104866106Y-66014566D01*
X107697605Y-64784290D02*
X106096382Y-64784290D01*
X96123105Y-69215000D02*
X95502395Y-69835710D01*
X97790000Y-69215000D02*
X96123105Y-69215000D01*
X99183836Y-70608836D02*
X97790000Y-69215000D01*
X100223716Y-70608836D02*
X99183836Y-70608836D01*
X89055000Y-66040000D02*
X90170000Y-64925000D01*
X88542500Y-66040000D02*
X89055000Y-66040000D01*
X90170000Y-63932648D02*
X92926324Y-61176324D01*
X90170000Y-64925000D02*
X90170000Y-63932648D01*
X108585000Y-63896895D02*
X107697605Y-64784290D01*
X108585000Y-62865000D02*
X108585000Y-63896895D01*
%TO.N,Net-(D13-Pad2)*%
X106680000Y-67310000D02*
X105410000Y-68580000D01*
X108200000Y-67310000D02*
X106680000Y-67310000D01*
X100875000Y-69850000D02*
X99695000Y-69850000D01*
X99695000Y-69850000D02*
X98425000Y-68580000D01*
X98425000Y-68580000D02*
X97790000Y-68580000D01*
X96520000Y-67310000D02*
X95000000Y-67310000D01*
X97790000Y-68580000D02*
X96520000Y-67310000D01*
X88542500Y-68580000D02*
X90170000Y-68580000D01*
X93730000Y-68580000D02*
X95000000Y-67310000D01*
X93345000Y-68580000D02*
X93730000Y-68580000D01*
%TO.N,Net-(D14-Pad2)*%
X105439446Y-69835710D02*
X104167807Y-71107349D01*
X107697605Y-69835710D02*
X105439446Y-69835710D01*
X95516685Y-64770000D02*
X95502395Y-64784290D01*
X99060000Y-64770000D02*
X95516685Y-64770000D01*
X88542500Y-70485000D02*
X90170000Y-70485000D01*
X108346895Y-70485000D02*
X107697605Y-69835710D01*
X108585000Y-70485000D02*
X108346895Y-70485000D01*
%TO.N,Net-(D15-Pad2)*%
X104012058Y-71976905D02*
X103155153Y-71120000D01*
X106266905Y-71976905D02*
X104012058Y-71976905D01*
X98032504Y-62643095D02*
X96933095Y-62643095D01*
X100133248Y-64743839D02*
X98032504Y-62643095D01*
X88542500Y-72390000D02*
X90170000Y-72390000D01*
X107315000Y-73025000D02*
X106266905Y-71976905D01*
%TO.N,Net-(D16-Pad2)*%
X104125710Y-73407605D02*
X103108105Y-72390000D01*
X103108105Y-72390000D02*
X102870000Y-72390000D01*
X102430153Y-71950153D02*
X102430153Y-70045153D01*
X102870000Y-72390000D02*
X102430153Y-71950153D01*
X101124526Y-64875645D02*
X101124526Y-63024526D01*
X99312395Y-61212395D02*
X99074290Y-61212395D01*
X101124526Y-63024526D02*
X99312395Y-61212395D01*
X88542500Y-74295000D02*
X90170000Y-74295000D01*
X104775000Y-74056895D02*
X104125710Y-73407605D01*
X104775000Y-74820050D02*
X104775000Y-74056895D01*
%TO.N,Net-(D10-Pad1)*%
X93400010Y-66109990D02*
X92200000Y-67310000D01*
X96859990Y-66109990D02*
X93400010Y-66109990D01*
X98060000Y-67310000D02*
X96859990Y-66109990D01*
X92200000Y-67310000D02*
X92915533Y-70907224D01*
X92915533Y-70907224D02*
X94953197Y-73956803D01*
X94953197Y-73956803D02*
X98002776Y-75994467D01*
X98002776Y-75994467D02*
X101600000Y-76710000D01*
X92200000Y-67310000D02*
X92915533Y-63712776D01*
X92915533Y-63712776D02*
X94953197Y-60663197D01*
X94953197Y-60663197D02*
X98002776Y-58625533D01*
%TO.N,A*%
X101920000Y-66360000D02*
X101600000Y-66040000D01*
X103140000Y-66360000D02*
X101920000Y-66360000D01*
%TO.N,CLK*%
X80451768Y-66675000D02*
X78546768Y-64770000D01*
X82485000Y-66675000D02*
X80451768Y-66675000D01*
X75188001Y-66130001D02*
X74385001Y-66130001D01*
X75565001Y-65753001D02*
X75188001Y-66130001D01*
X75565001Y-65404999D02*
X75565001Y-65753001D01*
X76200000Y-64770000D02*
X75565001Y-65404999D01*
X78546768Y-64770000D02*
X76200000Y-64770000D01*
X72390000Y-61760998D02*
X72390000Y-60960000D01*
X71214999Y-62935999D02*
X72390000Y-61760998D01*
X71214999Y-64064001D02*
X71214999Y-62935999D01*
X71825999Y-64675001D02*
X71214999Y-64064001D01*
X72930001Y-64675001D02*
X71825999Y-64675001D01*
X74385001Y-66130001D02*
X72930001Y-64675001D01*
%TO.N,B*%
X100060000Y-68260000D02*
X99375000Y-68260000D01*
X99375000Y-68260000D02*
X99060000Y-67945000D01*
X98135002Y-65950000D02*
X97790000Y-65950000D01*
X99060000Y-66874998D02*
X98135002Y-65950000D01*
X99060000Y-67945000D02*
X99060000Y-66874998D01*
X74930000Y-58965000D02*
X71845000Y-58965000D01*
X71845000Y-58965000D02*
X71120000Y-59690000D01*
X71120000Y-59690000D02*
X71120000Y-62230000D01*
X71120000Y-62230000D02*
X69850000Y-63500000D01*
%TO.N,SER*%
X82485000Y-62865000D02*
X81280000Y-62865000D01*
X79384990Y-60969990D02*
X74304990Y-60969990D01*
X81280000Y-62865000D02*
X79384990Y-60969990D01*
X74304990Y-60969990D02*
X73679980Y-61595000D01*
X73679980Y-61595000D02*
X73679980Y-62845020D01*
X73025000Y-63500000D02*
X72390000Y-63500000D01*
X73679980Y-62845020D02*
X73025000Y-63500000D01*
%TO.N,LAT*%
X82485000Y-65405000D02*
X81274360Y-65405000D01*
X81274360Y-65405000D02*
X79369360Y-63500000D01*
X75565000Y-63500000D02*
X75020001Y-64044999D01*
X79369360Y-63500000D02*
X75565000Y-63500000D01*
X75020001Y-65224999D02*
X74840000Y-65405000D01*
X75020001Y-64044999D02*
X75020001Y-65224999D01*
%TO.N,OE*%
X82485000Y-64135000D02*
X81277180Y-64135000D01*
X81277180Y-64135000D02*
X79372180Y-62230000D01*
X79372180Y-62230000D02*
X74930000Y-62230000D01*
X74295000Y-62865000D02*
X74295000Y-64225000D01*
X74930000Y-62230000D02*
X74295000Y-62865000D01*
%TO.N,LED1*%
X85447500Y-61595000D02*
X86717500Y-60325000D01*
X82485000Y-61595000D02*
X85447500Y-61595000D01*
%TO.N,LED2*%
X81473232Y-62230000D02*
X86717500Y-62230000D01*
X79568232Y-60325000D02*
X81473232Y-62230000D01*
X77535000Y-60325000D02*
X79568232Y-60325000D01*
%TO.N,LED3*%
X79373590Y-61595000D02*
X81278590Y-63500000D01*
X77535000Y-61595000D02*
X79373590Y-61595000D01*
X81278590Y-63500000D02*
X83820000Y-63500000D01*
X83820000Y-63500000D02*
X84455000Y-64135000D01*
X84455000Y-64135000D02*
X86717500Y-64135000D01*
%TO.N,LED4*%
X79370770Y-62865000D02*
X81275770Y-64770000D01*
X77535000Y-62865000D02*
X79370770Y-62865000D01*
X84766768Y-66040000D02*
X86717500Y-66040000D01*
X83496768Y-64770000D02*
X84766768Y-66040000D01*
X81275770Y-64770000D02*
X83496768Y-64770000D01*
%TO.N,LED5*%
X79367950Y-64135000D02*
X81272950Y-66040000D01*
X77535000Y-64135000D02*
X79367950Y-64135000D01*
X86036768Y-68580000D02*
X86717500Y-68580000D01*
X83496768Y-66040000D02*
X86036768Y-68580000D01*
X81272950Y-66040000D02*
X83496768Y-66040000D01*
%TO.N,LED6*%
X78545358Y-65405000D02*
X80450358Y-67310000D01*
X77535000Y-65405000D02*
X78545358Y-65405000D01*
X83496768Y-67310000D02*
X85725000Y-69538232D01*
X80450358Y-67310000D02*
X83496768Y-67310000D01*
X85725000Y-69538232D02*
X85725000Y-69850000D01*
X85725000Y-69850000D02*
X86360000Y-70485000D01*
X86360000Y-70485000D02*
X86717500Y-70485000D01*
%TO.N,LED7*%
X77535000Y-66675000D02*
X78740000Y-66675000D01*
X78740000Y-66675000D02*
X80010000Y-67945000D01*
X80010000Y-67945000D02*
X80010000Y-69215000D01*
X80010000Y-69215000D02*
X80645000Y-69850000D01*
X80645000Y-69850000D02*
X84455000Y-69850000D01*
X84455000Y-69850000D02*
X85090000Y-70485000D01*
X85090000Y-70485000D02*
X85090000Y-71755000D01*
X85090000Y-71755000D02*
X85725000Y-72390000D01*
X85725000Y-72390000D02*
X86717500Y-72390000D01*
%TO.N,LED8*%
X86360000Y-74295000D02*
X86717500Y-74295000D01*
X83820000Y-70485000D02*
X84455000Y-71120000D01*
X84455000Y-72390000D02*
X86360000Y-74295000D01*
X80010000Y-70485000D02*
X83820000Y-70485000D01*
X79375000Y-68580000D02*
X79375000Y-69850000D01*
X79375000Y-69850000D02*
X80010000Y-70485000D01*
X78740000Y-67945000D02*
X79375000Y-68580000D01*
X84455000Y-71120000D02*
X84455000Y-72390000D01*
X77535000Y-67945000D02*
X78740000Y-67945000D01*
%TD*%
D16*
%TO.N,VCC*%
X119867884Y-57226002D02*
X120337188Y-57367694D01*
X120770025Y-57597837D01*
X121149927Y-57907678D01*
X121462403Y-58285397D01*
X121695569Y-58716627D01*
X121840532Y-59184928D01*
X121895000Y-59703153D01*
X121895001Y-74897712D01*
X121843998Y-75417883D01*
X121702307Y-75887186D01*
X121472161Y-76320028D01*
X121162323Y-76699927D01*
X120784600Y-77012406D01*
X120353373Y-77245569D01*
X119885073Y-77390532D01*
X119366847Y-77445000D01*
X104956692Y-77445000D01*
X105103156Y-77400571D01*
X106258005Y-76922217D01*
X106411542Y-76840150D01*
X106546117Y-76729707D01*
X106656560Y-76595131D01*
X106738627Y-76441595D01*
X106789163Y-76274999D01*
X106806227Y-76101745D01*
X106789163Y-75928490D01*
X106768057Y-75858913D01*
X107066259Y-75659661D01*
X107032795Y-75709744D01*
X106954774Y-75898102D01*
X106915000Y-76098061D01*
X106915000Y-76301939D01*
X106954774Y-76501898D01*
X107032795Y-76690256D01*
X107146063Y-76859774D01*
X107290226Y-77003937D01*
X107459744Y-77117205D01*
X107648102Y-77195226D01*
X107848061Y-77235000D01*
X108051939Y-77235000D01*
X108251898Y-77195226D01*
X108440256Y-77117205D01*
X108585000Y-77020490D01*
X108729744Y-77117205D01*
X108918102Y-77195226D01*
X109118061Y-77235000D01*
X109321939Y-77235000D01*
X109521898Y-77195226D01*
X109710256Y-77117205D01*
X109879774Y-77003937D01*
X110023937Y-76859774D01*
X110137205Y-76690256D01*
X110215226Y-76501898D01*
X110255000Y-76301939D01*
X110255000Y-76098061D01*
X110215226Y-75898102D01*
X110170789Y-75790822D01*
X110362808Y-75598803D01*
X110399528Y-75719852D01*
X110481595Y-75873387D01*
X110592038Y-76007962D01*
X110726613Y-76118405D01*
X110880148Y-76200472D01*
X111046744Y-76251008D01*
X111219998Y-76268072D01*
X111745002Y-76268072D01*
X111918256Y-76251008D01*
X112084852Y-76200472D01*
X112238387Y-76118405D01*
X112372962Y-76007962D01*
X112395000Y-75981109D01*
X112417038Y-76007962D01*
X112551613Y-76118405D01*
X112705148Y-76200472D01*
X112871744Y-76251008D01*
X113044998Y-76268072D01*
X113570002Y-76268072D01*
X113743256Y-76251008D01*
X113909852Y-76200472D01*
X114063387Y-76118405D01*
X114197962Y-76007962D01*
X114277242Y-75911359D01*
X114377038Y-76032962D01*
X114511614Y-76143405D01*
X114665150Y-76225472D01*
X114831746Y-76276008D01*
X115005000Y-76293072D01*
X115505000Y-76293072D01*
X115678254Y-76276008D01*
X115844850Y-76225472D01*
X115998386Y-76143405D01*
X116132962Y-76032962D01*
X116138342Y-76026406D01*
X116203815Y-76106185D01*
X116300506Y-76185537D01*
X116410820Y-76244502D01*
X116530518Y-76280812D01*
X116655000Y-76293072D01*
X116869250Y-76290000D01*
X117028000Y-76131250D01*
X117028000Y-75057000D01*
X117282000Y-75057000D01*
X117282000Y-76131250D01*
X117440750Y-76290000D01*
X117655000Y-76293072D01*
X117779482Y-76280812D01*
X117899180Y-76244502D01*
X118009494Y-76185537D01*
X118106185Y-76106185D01*
X118185537Y-76009494D01*
X118244502Y-75899180D01*
X118280812Y-75779482D01*
X118293072Y-75655000D01*
X118290000Y-75215750D01*
X118131250Y-75057000D01*
X117282000Y-75057000D01*
X117028000Y-75057000D01*
X117008000Y-75057000D01*
X117008000Y-74803000D01*
X117028000Y-74803000D01*
X117028000Y-73728750D01*
X117282000Y-73728750D01*
X117282000Y-74803000D01*
X118131250Y-74803000D01*
X118290000Y-74644250D01*
X118293072Y-74205000D01*
X118280812Y-74080518D01*
X118244502Y-73960820D01*
X118185537Y-73850506D01*
X118106185Y-73753815D01*
X118009494Y-73674463D01*
X117899180Y-73615498D01*
X117779482Y-73579188D01*
X117655000Y-73566928D01*
X117440750Y-73570000D01*
X117282000Y-73728750D01*
X117028000Y-73728750D01*
X116869250Y-73570000D01*
X116655000Y-73566928D01*
X116530518Y-73579188D01*
X116410820Y-73615498D01*
X116300506Y-73674463D01*
X116203815Y-73753815D01*
X116138342Y-73833594D01*
X116132962Y-73827038D01*
X115998386Y-73716595D01*
X115844850Y-73634528D01*
X115678254Y-73583992D01*
X115505000Y-73566928D01*
X115133926Y-73566928D01*
X115217962Y-73497962D01*
X115314770Y-73380000D01*
X118365230Y-73380000D01*
X118462038Y-73497962D01*
X118596614Y-73608405D01*
X118750150Y-73690472D01*
X118916746Y-73741008D01*
X119090000Y-73758072D01*
X120590000Y-73758072D01*
X120763254Y-73741008D01*
X120929850Y-73690472D01*
X121083386Y-73608405D01*
X121217962Y-73497962D01*
X121328405Y-73363386D01*
X121410472Y-73209850D01*
X121461008Y-73043254D01*
X121478072Y-72870000D01*
X121478072Y-72370000D01*
X121461008Y-72196746D01*
X121410472Y-72030150D01*
X121328405Y-71876614D01*
X121217962Y-71742038D01*
X121083386Y-71631595D01*
X120929850Y-71549528D01*
X120763254Y-71498992D01*
X120590000Y-71481928D01*
X119090000Y-71481928D01*
X118916746Y-71498992D01*
X118750150Y-71549528D01*
X118596614Y-71631595D01*
X118462038Y-71742038D01*
X118365230Y-71860000D01*
X115314770Y-71860000D01*
X115217962Y-71742038D01*
X115083386Y-71631595D01*
X114929850Y-71549528D01*
X114763254Y-71498992D01*
X114590000Y-71481928D01*
X113090000Y-71481928D01*
X112916746Y-71498992D01*
X112750150Y-71549528D01*
X112596614Y-71631595D01*
X112462038Y-71742038D01*
X112365230Y-71860000D01*
X112304132Y-71860000D01*
X112266809Y-71856324D01*
X112229486Y-71860000D01*
X112229477Y-71860000D01*
X112117824Y-71870997D01*
X112068992Y-71885810D01*
X113025993Y-70928809D01*
X113054991Y-70905011D01*
X113100884Y-70849090D01*
X113149964Y-70789287D01*
X113167402Y-70756664D01*
X113554250Y-70755000D01*
X113713000Y-70596250D01*
X113713000Y-69747000D01*
X113967000Y-69747000D01*
X113967000Y-70596250D01*
X114125750Y-70755000D01*
X114840000Y-70758072D01*
X114964482Y-70745812D01*
X115084180Y-70709502D01*
X115194494Y-70650537D01*
X115291185Y-70571185D01*
X115370537Y-70474494D01*
X115429502Y-70364180D01*
X115465812Y-70244482D01*
X115478072Y-70120000D01*
X118201928Y-70120000D01*
X118214188Y-70244482D01*
X118250498Y-70364180D01*
X118309463Y-70474494D01*
X118388815Y-70571185D01*
X118485506Y-70650537D01*
X118595820Y-70709502D01*
X118715518Y-70745812D01*
X118840000Y-70758072D01*
X119554250Y-70755000D01*
X119713000Y-70596250D01*
X119713000Y-69747000D01*
X119967000Y-69747000D01*
X119967000Y-70596250D01*
X120125750Y-70755000D01*
X120840000Y-70758072D01*
X120964482Y-70745812D01*
X121084180Y-70709502D01*
X121194494Y-70650537D01*
X121291185Y-70571185D01*
X121370537Y-70474494D01*
X121429502Y-70364180D01*
X121465812Y-70244482D01*
X121478072Y-70120000D01*
X121475000Y-69905750D01*
X121316250Y-69747000D01*
X119967000Y-69747000D01*
X119713000Y-69747000D01*
X118363750Y-69747000D01*
X118205000Y-69905750D01*
X118201928Y-70120000D01*
X115478072Y-70120000D01*
X115475000Y-69905750D01*
X115316250Y-69747000D01*
X113967000Y-69747000D01*
X113713000Y-69747000D01*
X113693000Y-69747000D01*
X113693000Y-69493000D01*
X113713000Y-69493000D01*
X113713000Y-68643750D01*
X113967000Y-68643750D01*
X113967000Y-69493000D01*
X115316250Y-69493000D01*
X115475000Y-69334250D01*
X115478072Y-69120000D01*
X118201928Y-69120000D01*
X118205000Y-69334250D01*
X118363750Y-69493000D01*
X119713000Y-69493000D01*
X119713000Y-68643750D01*
X119967000Y-68643750D01*
X119967000Y-69493000D01*
X121316250Y-69493000D01*
X121475000Y-69334250D01*
X121478072Y-69120000D01*
X121465812Y-68995518D01*
X121429502Y-68875820D01*
X121370537Y-68765506D01*
X121291185Y-68668815D01*
X121194494Y-68589463D01*
X121084180Y-68530498D01*
X120964482Y-68494188D01*
X120840000Y-68481928D01*
X120125750Y-68485000D01*
X119967000Y-68643750D01*
X119713000Y-68643750D01*
X119554250Y-68485000D01*
X118840000Y-68481928D01*
X118715518Y-68494188D01*
X118595820Y-68530498D01*
X118485506Y-68589463D01*
X118388815Y-68668815D01*
X118309463Y-68765506D01*
X118250498Y-68875820D01*
X118214188Y-68995518D01*
X118201928Y-69120000D01*
X115478072Y-69120000D01*
X115465812Y-68995518D01*
X115429502Y-68875820D01*
X115370537Y-68765506D01*
X115291185Y-68668815D01*
X115194494Y-68589463D01*
X115084180Y-68530498D01*
X114964482Y-68494188D01*
X114840000Y-68481928D01*
X114125750Y-68485000D01*
X113967000Y-68643750D01*
X113713000Y-68643750D01*
X113554250Y-68485000D01*
X113274990Y-68483799D01*
X113274990Y-66136201D01*
X113554250Y-66135000D01*
X113713000Y-65976250D01*
X113713000Y-65127000D01*
X113967000Y-65127000D01*
X113967000Y-65976250D01*
X114125750Y-66135000D01*
X114840000Y-66138072D01*
X114964482Y-66125812D01*
X115084180Y-66089502D01*
X115194494Y-66030537D01*
X115291185Y-65951185D01*
X115370537Y-65854494D01*
X115429502Y-65744180D01*
X115465812Y-65624482D01*
X115478072Y-65500000D01*
X118201928Y-65500000D01*
X118214188Y-65624482D01*
X118250498Y-65744180D01*
X118309463Y-65854494D01*
X118388815Y-65951185D01*
X118485506Y-66030537D01*
X118595820Y-66089502D01*
X118715518Y-66125812D01*
X118840000Y-66138072D01*
X119554250Y-66135000D01*
X119713000Y-65976250D01*
X119713000Y-65127000D01*
X119967000Y-65127000D01*
X119967000Y-65976250D01*
X120125750Y-66135000D01*
X120840000Y-66138072D01*
X120964482Y-66125812D01*
X121084180Y-66089502D01*
X121194494Y-66030537D01*
X121291185Y-65951185D01*
X121370537Y-65854494D01*
X121429502Y-65744180D01*
X121465812Y-65624482D01*
X121478072Y-65500000D01*
X121475000Y-65285750D01*
X121316250Y-65127000D01*
X119967000Y-65127000D01*
X119713000Y-65127000D01*
X118363750Y-65127000D01*
X118205000Y-65285750D01*
X118201928Y-65500000D01*
X115478072Y-65500000D01*
X115475000Y-65285750D01*
X115316250Y-65127000D01*
X113967000Y-65127000D01*
X113713000Y-65127000D01*
X113693000Y-65127000D01*
X113693000Y-64873000D01*
X113713000Y-64873000D01*
X113713000Y-64023750D01*
X113967000Y-64023750D01*
X113967000Y-64873000D01*
X115316250Y-64873000D01*
X115475000Y-64714250D01*
X115478072Y-64500000D01*
X118201928Y-64500000D01*
X118205000Y-64714250D01*
X118363750Y-64873000D01*
X119713000Y-64873000D01*
X119713000Y-64023750D01*
X119967000Y-64023750D01*
X119967000Y-64873000D01*
X121316250Y-64873000D01*
X121475000Y-64714250D01*
X121478072Y-64500000D01*
X121465812Y-64375518D01*
X121429502Y-64255820D01*
X121370537Y-64145506D01*
X121291185Y-64048815D01*
X121194494Y-63969463D01*
X121084180Y-63910498D01*
X120964482Y-63874188D01*
X120840000Y-63861928D01*
X120125750Y-63865000D01*
X119967000Y-64023750D01*
X119713000Y-64023750D01*
X119554250Y-63865000D01*
X118840000Y-63861928D01*
X118715518Y-63874188D01*
X118595820Y-63910498D01*
X118485506Y-63969463D01*
X118388815Y-64048815D01*
X118309463Y-64145506D01*
X118250498Y-64255820D01*
X118214188Y-64375518D01*
X118201928Y-64500000D01*
X115478072Y-64500000D01*
X115465812Y-64375518D01*
X115429502Y-64255820D01*
X115370537Y-64145506D01*
X115291185Y-64048815D01*
X115194494Y-63969463D01*
X115084180Y-63910498D01*
X114964482Y-63874188D01*
X114840000Y-63861928D01*
X114125750Y-63865000D01*
X113967000Y-64023750D01*
X113713000Y-64023750D01*
X113554250Y-63865000D01*
X113274990Y-63863799D01*
X113274990Y-63639811D01*
X113776730Y-63138072D01*
X114590000Y-63138072D01*
X114763254Y-63121008D01*
X114929850Y-63070472D01*
X115083386Y-62988405D01*
X115217962Y-62877962D01*
X115314770Y-62760000D01*
X118365230Y-62760000D01*
X118462038Y-62877962D01*
X118596614Y-62988405D01*
X118750150Y-63070472D01*
X118916746Y-63121008D01*
X119090000Y-63138072D01*
X120590000Y-63138072D01*
X120763254Y-63121008D01*
X120929850Y-63070472D01*
X121083386Y-62988405D01*
X121217962Y-62877962D01*
X121328405Y-62743386D01*
X121410472Y-62589850D01*
X121461008Y-62423254D01*
X121478072Y-62250000D01*
X121478072Y-61750000D01*
X121461008Y-61576746D01*
X121410472Y-61410150D01*
X121328405Y-61256614D01*
X121217962Y-61122038D01*
X121083386Y-61011595D01*
X120929850Y-60929528D01*
X120763254Y-60878992D01*
X120590000Y-60861928D01*
X119090000Y-60861928D01*
X118916746Y-60878992D01*
X118750150Y-60929528D01*
X118596614Y-61011595D01*
X118462038Y-61122038D01*
X118365230Y-61240000D01*
X115314770Y-61240000D01*
X115217962Y-61122038D01*
X115133926Y-61053072D01*
X115505000Y-61053072D01*
X115678254Y-61036008D01*
X115844850Y-60985472D01*
X115998386Y-60903405D01*
X116132962Y-60792962D01*
X116138342Y-60786406D01*
X116203815Y-60866185D01*
X116300506Y-60945537D01*
X116410820Y-61004502D01*
X116530518Y-61040812D01*
X116655000Y-61053072D01*
X116869250Y-61050000D01*
X117028000Y-60891250D01*
X117028000Y-59817000D01*
X117282000Y-59817000D01*
X117282000Y-60891250D01*
X117440750Y-61050000D01*
X117655000Y-61053072D01*
X117779482Y-61040812D01*
X117899180Y-61004502D01*
X118009494Y-60945537D01*
X118106185Y-60866185D01*
X118185537Y-60769494D01*
X118244502Y-60659180D01*
X118280812Y-60539482D01*
X118293072Y-60415000D01*
X118290000Y-59975750D01*
X118131250Y-59817000D01*
X117282000Y-59817000D01*
X117028000Y-59817000D01*
X117008000Y-59817000D01*
X117008000Y-59563000D01*
X117028000Y-59563000D01*
X117028000Y-58488750D01*
X117282000Y-58488750D01*
X117282000Y-59563000D01*
X118131250Y-59563000D01*
X118290000Y-59404250D01*
X118293072Y-58965000D01*
X118280812Y-58840518D01*
X118244502Y-58720820D01*
X118185537Y-58610506D01*
X118106185Y-58513815D01*
X118009494Y-58434463D01*
X117899180Y-58375498D01*
X117779482Y-58339188D01*
X117655000Y-58326928D01*
X117440750Y-58330000D01*
X117282000Y-58488750D01*
X117028000Y-58488750D01*
X116869250Y-58330000D01*
X116655000Y-58326928D01*
X116530518Y-58339188D01*
X116410820Y-58375498D01*
X116300506Y-58434463D01*
X116203815Y-58513815D01*
X116138342Y-58593594D01*
X116132962Y-58587038D01*
X115998386Y-58476595D01*
X115844850Y-58394528D01*
X115678254Y-58343992D01*
X115505000Y-58326928D01*
X115005000Y-58326928D01*
X114831746Y-58343992D01*
X114665150Y-58394528D01*
X114511614Y-58476595D01*
X114377038Y-58587038D01*
X114277242Y-58708641D01*
X114197962Y-58612038D01*
X114063387Y-58501595D01*
X113909852Y-58419528D01*
X113743256Y-58368992D01*
X113570002Y-58351928D01*
X113044998Y-58351928D01*
X112871744Y-58368992D01*
X112705148Y-58419528D01*
X112551613Y-58501595D01*
X112417038Y-58612038D01*
X112395000Y-58638891D01*
X112372962Y-58612038D01*
X112238387Y-58501595D01*
X112084852Y-58419528D01*
X111918256Y-58368992D01*
X111745002Y-58351928D01*
X111219998Y-58351928D01*
X111046744Y-58368992D01*
X110880148Y-58419528D01*
X110726613Y-58501595D01*
X110592038Y-58612038D01*
X110556780Y-58655000D01*
X110388061Y-58655000D01*
X110188102Y-58694774D01*
X109999744Y-58772795D01*
X109830226Y-58886063D01*
X109686063Y-59030226D01*
X109572795Y-59199744D01*
X109494774Y-59388102D01*
X109455000Y-59588061D01*
X109455000Y-59791939D01*
X109494774Y-59991898D01*
X109572795Y-60180256D01*
X109647213Y-60291631D01*
X109581872Y-60212012D01*
X108697988Y-59328128D01*
X108563412Y-59217685D01*
X108409876Y-59135618D01*
X108243280Y-59085082D01*
X108070026Y-59068018D01*
X107896772Y-59085082D01*
X107730176Y-59135618D01*
X107576640Y-59217685D01*
X107520436Y-59263810D01*
X106768057Y-58761087D01*
X106789163Y-58691509D01*
X106806227Y-58518255D01*
X106789163Y-58345001D01*
X106738627Y-58178404D01*
X106656560Y-58024869D01*
X106546117Y-57890293D01*
X106411541Y-57779850D01*
X106258005Y-57697783D01*
X105103156Y-57219429D01*
X104956693Y-57175000D01*
X119347722Y-57175000D01*
X119867884Y-57226002D01*
%TA.AperFunction,Conductor*%
D17*
G36*
X119867884Y-57226002D02*
G01*
X120337188Y-57367694D01*
X120770025Y-57597837D01*
X121149927Y-57907678D01*
X121462403Y-58285397D01*
X121695569Y-58716627D01*
X121840532Y-59184928D01*
X121895000Y-59703153D01*
X121895001Y-74897712D01*
X121843998Y-75417883D01*
X121702307Y-75887186D01*
X121472161Y-76320028D01*
X121162323Y-76699927D01*
X120784600Y-77012406D01*
X120353373Y-77245569D01*
X119885073Y-77390532D01*
X119366847Y-77445000D01*
X104956692Y-77445000D01*
X105103156Y-77400571D01*
X106258005Y-76922217D01*
X106411542Y-76840150D01*
X106546117Y-76729707D01*
X106656560Y-76595131D01*
X106738627Y-76441595D01*
X106789163Y-76274999D01*
X106806227Y-76101745D01*
X106789163Y-75928490D01*
X106768057Y-75858913D01*
X107066259Y-75659661D01*
X107032795Y-75709744D01*
X106954774Y-75898102D01*
X106915000Y-76098061D01*
X106915000Y-76301939D01*
X106954774Y-76501898D01*
X107032795Y-76690256D01*
X107146063Y-76859774D01*
X107290226Y-77003937D01*
X107459744Y-77117205D01*
X107648102Y-77195226D01*
X107848061Y-77235000D01*
X108051939Y-77235000D01*
X108251898Y-77195226D01*
X108440256Y-77117205D01*
X108585000Y-77020490D01*
X108729744Y-77117205D01*
X108918102Y-77195226D01*
X109118061Y-77235000D01*
X109321939Y-77235000D01*
X109521898Y-77195226D01*
X109710256Y-77117205D01*
X109879774Y-77003937D01*
X110023937Y-76859774D01*
X110137205Y-76690256D01*
X110215226Y-76501898D01*
X110255000Y-76301939D01*
X110255000Y-76098061D01*
X110215226Y-75898102D01*
X110170789Y-75790822D01*
X110362808Y-75598803D01*
X110399528Y-75719852D01*
X110481595Y-75873387D01*
X110592038Y-76007962D01*
X110726613Y-76118405D01*
X110880148Y-76200472D01*
X111046744Y-76251008D01*
X111219998Y-76268072D01*
X111745002Y-76268072D01*
X111918256Y-76251008D01*
X112084852Y-76200472D01*
X112238387Y-76118405D01*
X112372962Y-76007962D01*
X112395000Y-75981109D01*
X112417038Y-76007962D01*
X112551613Y-76118405D01*
X112705148Y-76200472D01*
X112871744Y-76251008D01*
X113044998Y-76268072D01*
X113570002Y-76268072D01*
X113743256Y-76251008D01*
X113909852Y-76200472D01*
X114063387Y-76118405D01*
X114197962Y-76007962D01*
X114277242Y-75911359D01*
X114377038Y-76032962D01*
X114511614Y-76143405D01*
X114665150Y-76225472D01*
X114831746Y-76276008D01*
X115005000Y-76293072D01*
X115505000Y-76293072D01*
X115678254Y-76276008D01*
X115844850Y-76225472D01*
X115998386Y-76143405D01*
X116132962Y-76032962D01*
X116138342Y-76026406D01*
X116203815Y-76106185D01*
X116300506Y-76185537D01*
X116410820Y-76244502D01*
X116530518Y-76280812D01*
X116655000Y-76293072D01*
X116869250Y-76290000D01*
X117028000Y-76131250D01*
X117028000Y-75057000D01*
X117282000Y-75057000D01*
X117282000Y-76131250D01*
X117440750Y-76290000D01*
X117655000Y-76293072D01*
X117779482Y-76280812D01*
X117899180Y-76244502D01*
X118009494Y-76185537D01*
X118106185Y-76106185D01*
X118185537Y-76009494D01*
X118244502Y-75899180D01*
X118280812Y-75779482D01*
X118293072Y-75655000D01*
X118290000Y-75215750D01*
X118131250Y-75057000D01*
X117282000Y-75057000D01*
X117028000Y-75057000D01*
X117008000Y-75057000D01*
X117008000Y-74803000D01*
X117028000Y-74803000D01*
X117028000Y-73728750D01*
X117282000Y-73728750D01*
X117282000Y-74803000D01*
X118131250Y-74803000D01*
X118290000Y-74644250D01*
X118293072Y-74205000D01*
X118280812Y-74080518D01*
X118244502Y-73960820D01*
X118185537Y-73850506D01*
X118106185Y-73753815D01*
X118009494Y-73674463D01*
X117899180Y-73615498D01*
X117779482Y-73579188D01*
X117655000Y-73566928D01*
X117440750Y-73570000D01*
X117282000Y-73728750D01*
X117028000Y-73728750D01*
X116869250Y-73570000D01*
X116655000Y-73566928D01*
X116530518Y-73579188D01*
X116410820Y-73615498D01*
X116300506Y-73674463D01*
X116203815Y-73753815D01*
X116138342Y-73833594D01*
X116132962Y-73827038D01*
X115998386Y-73716595D01*
X115844850Y-73634528D01*
X115678254Y-73583992D01*
X115505000Y-73566928D01*
X115133926Y-73566928D01*
X115217962Y-73497962D01*
X115314770Y-73380000D01*
X118365230Y-73380000D01*
X118462038Y-73497962D01*
X118596614Y-73608405D01*
X118750150Y-73690472D01*
X118916746Y-73741008D01*
X119090000Y-73758072D01*
X120590000Y-73758072D01*
X120763254Y-73741008D01*
X120929850Y-73690472D01*
X121083386Y-73608405D01*
X121217962Y-73497962D01*
X121328405Y-73363386D01*
X121410472Y-73209850D01*
X121461008Y-73043254D01*
X121478072Y-72870000D01*
X121478072Y-72370000D01*
X121461008Y-72196746D01*
X121410472Y-72030150D01*
X121328405Y-71876614D01*
X121217962Y-71742038D01*
X121083386Y-71631595D01*
X120929850Y-71549528D01*
X120763254Y-71498992D01*
X120590000Y-71481928D01*
X119090000Y-71481928D01*
X118916746Y-71498992D01*
X118750150Y-71549528D01*
X118596614Y-71631595D01*
X118462038Y-71742038D01*
X118365230Y-71860000D01*
X115314770Y-71860000D01*
X115217962Y-71742038D01*
X115083386Y-71631595D01*
X114929850Y-71549528D01*
X114763254Y-71498992D01*
X114590000Y-71481928D01*
X113090000Y-71481928D01*
X112916746Y-71498992D01*
X112750150Y-71549528D01*
X112596614Y-71631595D01*
X112462038Y-71742038D01*
X112365230Y-71860000D01*
X112304132Y-71860000D01*
X112266809Y-71856324D01*
X112229486Y-71860000D01*
X112229477Y-71860000D01*
X112117824Y-71870997D01*
X112068992Y-71885810D01*
X113025993Y-70928809D01*
X113054991Y-70905011D01*
X113100884Y-70849090D01*
X113149964Y-70789287D01*
X113167402Y-70756664D01*
X113554250Y-70755000D01*
X113713000Y-70596250D01*
X113713000Y-69747000D01*
X113967000Y-69747000D01*
X113967000Y-70596250D01*
X114125750Y-70755000D01*
X114840000Y-70758072D01*
X114964482Y-70745812D01*
X115084180Y-70709502D01*
X115194494Y-70650537D01*
X115291185Y-70571185D01*
X115370537Y-70474494D01*
X115429502Y-70364180D01*
X115465812Y-70244482D01*
X115478072Y-70120000D01*
X118201928Y-70120000D01*
X118214188Y-70244482D01*
X118250498Y-70364180D01*
X118309463Y-70474494D01*
X118388815Y-70571185D01*
X118485506Y-70650537D01*
X118595820Y-70709502D01*
X118715518Y-70745812D01*
X118840000Y-70758072D01*
X119554250Y-70755000D01*
X119713000Y-70596250D01*
X119713000Y-69747000D01*
X119967000Y-69747000D01*
X119967000Y-70596250D01*
X120125750Y-70755000D01*
X120840000Y-70758072D01*
X120964482Y-70745812D01*
X121084180Y-70709502D01*
X121194494Y-70650537D01*
X121291185Y-70571185D01*
X121370537Y-70474494D01*
X121429502Y-70364180D01*
X121465812Y-70244482D01*
X121478072Y-70120000D01*
X121475000Y-69905750D01*
X121316250Y-69747000D01*
X119967000Y-69747000D01*
X119713000Y-69747000D01*
X118363750Y-69747000D01*
X118205000Y-69905750D01*
X118201928Y-70120000D01*
X115478072Y-70120000D01*
X115475000Y-69905750D01*
X115316250Y-69747000D01*
X113967000Y-69747000D01*
X113713000Y-69747000D01*
X113693000Y-69747000D01*
X113693000Y-69493000D01*
X113713000Y-69493000D01*
X113713000Y-68643750D01*
X113967000Y-68643750D01*
X113967000Y-69493000D01*
X115316250Y-69493000D01*
X115475000Y-69334250D01*
X115478072Y-69120000D01*
X118201928Y-69120000D01*
X118205000Y-69334250D01*
X118363750Y-69493000D01*
X119713000Y-69493000D01*
X119713000Y-68643750D01*
X119967000Y-68643750D01*
X119967000Y-69493000D01*
X121316250Y-69493000D01*
X121475000Y-69334250D01*
X121478072Y-69120000D01*
X121465812Y-68995518D01*
X121429502Y-68875820D01*
X121370537Y-68765506D01*
X121291185Y-68668815D01*
X121194494Y-68589463D01*
X121084180Y-68530498D01*
X120964482Y-68494188D01*
X120840000Y-68481928D01*
X120125750Y-68485000D01*
X119967000Y-68643750D01*
X119713000Y-68643750D01*
X119554250Y-68485000D01*
X118840000Y-68481928D01*
X118715518Y-68494188D01*
X118595820Y-68530498D01*
X118485506Y-68589463D01*
X118388815Y-68668815D01*
X118309463Y-68765506D01*
X118250498Y-68875820D01*
X118214188Y-68995518D01*
X118201928Y-69120000D01*
X115478072Y-69120000D01*
X115465812Y-68995518D01*
X115429502Y-68875820D01*
X115370537Y-68765506D01*
X115291185Y-68668815D01*
X115194494Y-68589463D01*
X115084180Y-68530498D01*
X114964482Y-68494188D01*
X114840000Y-68481928D01*
X114125750Y-68485000D01*
X113967000Y-68643750D01*
X113713000Y-68643750D01*
X113554250Y-68485000D01*
X113274990Y-68483799D01*
X113274990Y-66136201D01*
X113554250Y-66135000D01*
X113713000Y-65976250D01*
X113713000Y-65127000D01*
X113967000Y-65127000D01*
X113967000Y-65976250D01*
X114125750Y-66135000D01*
X114840000Y-66138072D01*
X114964482Y-66125812D01*
X115084180Y-66089502D01*
X115194494Y-66030537D01*
X115291185Y-65951185D01*
X115370537Y-65854494D01*
X115429502Y-65744180D01*
X115465812Y-65624482D01*
X115478072Y-65500000D01*
X118201928Y-65500000D01*
X118214188Y-65624482D01*
X118250498Y-65744180D01*
X118309463Y-65854494D01*
X118388815Y-65951185D01*
X118485506Y-66030537D01*
X118595820Y-66089502D01*
X118715518Y-66125812D01*
X118840000Y-66138072D01*
X119554250Y-66135000D01*
X119713000Y-65976250D01*
X119713000Y-65127000D01*
X119967000Y-65127000D01*
X119967000Y-65976250D01*
X120125750Y-66135000D01*
X120840000Y-66138072D01*
X120964482Y-66125812D01*
X121084180Y-66089502D01*
X121194494Y-66030537D01*
X121291185Y-65951185D01*
X121370537Y-65854494D01*
X121429502Y-65744180D01*
X121465812Y-65624482D01*
X121478072Y-65500000D01*
X121475000Y-65285750D01*
X121316250Y-65127000D01*
X119967000Y-65127000D01*
X119713000Y-65127000D01*
X118363750Y-65127000D01*
X118205000Y-65285750D01*
X118201928Y-65500000D01*
X115478072Y-65500000D01*
X115475000Y-65285750D01*
X115316250Y-65127000D01*
X113967000Y-65127000D01*
X113713000Y-65127000D01*
X113693000Y-65127000D01*
X113693000Y-64873000D01*
X113713000Y-64873000D01*
X113713000Y-64023750D01*
X113967000Y-64023750D01*
X113967000Y-64873000D01*
X115316250Y-64873000D01*
X115475000Y-64714250D01*
X115478072Y-64500000D01*
X118201928Y-64500000D01*
X118205000Y-64714250D01*
X118363750Y-64873000D01*
X119713000Y-64873000D01*
X119713000Y-64023750D01*
X119967000Y-64023750D01*
X119967000Y-64873000D01*
X121316250Y-64873000D01*
X121475000Y-64714250D01*
X121478072Y-64500000D01*
X121465812Y-64375518D01*
X121429502Y-64255820D01*
X121370537Y-64145506D01*
X121291185Y-64048815D01*
X121194494Y-63969463D01*
X121084180Y-63910498D01*
X120964482Y-63874188D01*
X120840000Y-63861928D01*
X120125750Y-63865000D01*
X119967000Y-64023750D01*
X119713000Y-64023750D01*
X119554250Y-63865000D01*
X118840000Y-63861928D01*
X118715518Y-63874188D01*
X118595820Y-63910498D01*
X118485506Y-63969463D01*
X118388815Y-64048815D01*
X118309463Y-64145506D01*
X118250498Y-64255820D01*
X118214188Y-64375518D01*
X118201928Y-64500000D01*
X115478072Y-64500000D01*
X115465812Y-64375518D01*
X115429502Y-64255820D01*
X115370537Y-64145506D01*
X115291185Y-64048815D01*
X115194494Y-63969463D01*
X115084180Y-63910498D01*
X114964482Y-63874188D01*
X114840000Y-63861928D01*
X114125750Y-63865000D01*
X113967000Y-64023750D01*
X113713000Y-64023750D01*
X113554250Y-63865000D01*
X113274990Y-63863799D01*
X113274990Y-63639811D01*
X113776730Y-63138072D01*
X114590000Y-63138072D01*
X114763254Y-63121008D01*
X114929850Y-63070472D01*
X115083386Y-62988405D01*
X115217962Y-62877962D01*
X115314770Y-62760000D01*
X118365230Y-62760000D01*
X118462038Y-62877962D01*
X118596614Y-62988405D01*
X118750150Y-63070472D01*
X118916746Y-63121008D01*
X119090000Y-63138072D01*
X120590000Y-63138072D01*
X120763254Y-63121008D01*
X120929850Y-63070472D01*
X121083386Y-62988405D01*
X121217962Y-62877962D01*
X121328405Y-62743386D01*
X121410472Y-62589850D01*
X121461008Y-62423254D01*
X121478072Y-62250000D01*
X121478072Y-61750000D01*
X121461008Y-61576746D01*
X121410472Y-61410150D01*
X121328405Y-61256614D01*
X121217962Y-61122038D01*
X121083386Y-61011595D01*
X120929850Y-60929528D01*
X120763254Y-60878992D01*
X120590000Y-60861928D01*
X119090000Y-60861928D01*
X118916746Y-60878992D01*
X118750150Y-60929528D01*
X118596614Y-61011595D01*
X118462038Y-61122038D01*
X118365230Y-61240000D01*
X115314770Y-61240000D01*
X115217962Y-61122038D01*
X115133926Y-61053072D01*
X115505000Y-61053072D01*
X115678254Y-61036008D01*
X115844850Y-60985472D01*
X115998386Y-60903405D01*
X116132962Y-60792962D01*
X116138342Y-60786406D01*
X116203815Y-60866185D01*
X116300506Y-60945537D01*
X116410820Y-61004502D01*
X116530518Y-61040812D01*
X116655000Y-61053072D01*
X116869250Y-61050000D01*
X117028000Y-60891250D01*
X117028000Y-59817000D01*
X117282000Y-59817000D01*
X117282000Y-60891250D01*
X117440750Y-61050000D01*
X117655000Y-61053072D01*
X117779482Y-61040812D01*
X117899180Y-61004502D01*
X118009494Y-60945537D01*
X118106185Y-60866185D01*
X118185537Y-60769494D01*
X118244502Y-60659180D01*
X118280812Y-60539482D01*
X118293072Y-60415000D01*
X118290000Y-59975750D01*
X118131250Y-59817000D01*
X117282000Y-59817000D01*
X117028000Y-59817000D01*
X117008000Y-59817000D01*
X117008000Y-59563000D01*
X117028000Y-59563000D01*
X117028000Y-58488750D01*
X117282000Y-58488750D01*
X117282000Y-59563000D01*
X118131250Y-59563000D01*
X118290000Y-59404250D01*
X118293072Y-58965000D01*
X118280812Y-58840518D01*
X118244502Y-58720820D01*
X118185537Y-58610506D01*
X118106185Y-58513815D01*
X118009494Y-58434463D01*
X117899180Y-58375498D01*
X117779482Y-58339188D01*
X117655000Y-58326928D01*
X117440750Y-58330000D01*
X117282000Y-58488750D01*
X117028000Y-58488750D01*
X116869250Y-58330000D01*
X116655000Y-58326928D01*
X116530518Y-58339188D01*
X116410820Y-58375498D01*
X116300506Y-58434463D01*
X116203815Y-58513815D01*
X116138342Y-58593594D01*
X116132962Y-58587038D01*
X115998386Y-58476595D01*
X115844850Y-58394528D01*
X115678254Y-58343992D01*
X115505000Y-58326928D01*
X115005000Y-58326928D01*
X114831746Y-58343992D01*
X114665150Y-58394528D01*
X114511614Y-58476595D01*
X114377038Y-58587038D01*
X114277242Y-58708641D01*
X114197962Y-58612038D01*
X114063387Y-58501595D01*
X113909852Y-58419528D01*
X113743256Y-58368992D01*
X113570002Y-58351928D01*
X113044998Y-58351928D01*
X112871744Y-58368992D01*
X112705148Y-58419528D01*
X112551613Y-58501595D01*
X112417038Y-58612038D01*
X112395000Y-58638891D01*
X112372962Y-58612038D01*
X112238387Y-58501595D01*
X112084852Y-58419528D01*
X111918256Y-58368992D01*
X111745002Y-58351928D01*
X111219998Y-58351928D01*
X111046744Y-58368992D01*
X110880148Y-58419528D01*
X110726613Y-58501595D01*
X110592038Y-58612038D01*
X110556780Y-58655000D01*
X110388061Y-58655000D01*
X110188102Y-58694774D01*
X109999744Y-58772795D01*
X109830226Y-58886063D01*
X109686063Y-59030226D01*
X109572795Y-59199744D01*
X109494774Y-59388102D01*
X109455000Y-59588061D01*
X109455000Y-59791939D01*
X109494774Y-59991898D01*
X109572795Y-60180256D01*
X109647213Y-60291631D01*
X109581872Y-60212012D01*
X108697988Y-59328128D01*
X108563412Y-59217685D01*
X108409876Y-59135618D01*
X108243280Y-59085082D01*
X108070026Y-59068018D01*
X107896772Y-59085082D01*
X107730176Y-59135618D01*
X107576640Y-59217685D01*
X107520436Y-59263810D01*
X106768057Y-58761087D01*
X106789163Y-58691509D01*
X106806227Y-58518255D01*
X106789163Y-58345001D01*
X106738627Y-58178404D01*
X106656560Y-58024869D01*
X106546117Y-57890293D01*
X106411541Y-57779850D01*
X106258005Y-57697783D01*
X105103156Y-57219429D01*
X104956693Y-57175000D01*
X119347722Y-57175000D01*
X119867884Y-57226002D01*
G37*
%TD.AperFunction*%
D16*
X76264749Y-72259551D02*
X76294999Y-72296411D01*
X76324003Y-72320214D01*
X78174790Y-74171002D01*
X78198589Y-74200001D01*
X78314314Y-74294974D01*
X78446343Y-74365546D01*
X78589604Y-74409003D01*
X78701257Y-74420000D01*
X78701265Y-74420000D01*
X78738590Y-74423676D01*
X78775915Y-74420000D01*
X82870199Y-74420000D01*
X84976210Y-76526012D01*
X85000009Y-76555011D01*
X85029007Y-76578809D01*
X85115733Y-76649984D01*
X85209328Y-76700012D01*
X85247763Y-76720556D01*
X85391024Y-76764013D01*
X85502677Y-76775010D01*
X85502686Y-76775010D01*
X85540009Y-76778686D01*
X85577332Y-76775010D01*
X92845209Y-76775010D01*
X92871196Y-76800997D01*
X92894999Y-76830001D01*
X93010724Y-76924974D01*
X93142753Y-76995546D01*
X93286014Y-77039003D01*
X93435000Y-77053677D01*
X93472333Y-77050000D01*
X94546289Y-77050000D01*
X94590226Y-77093937D01*
X94759744Y-77207205D01*
X94948102Y-77285226D01*
X95148061Y-77325000D01*
X95351939Y-77325000D01*
X95551898Y-77285226D01*
X95740256Y-77207205D01*
X95909774Y-77093937D01*
X96053937Y-76949774D01*
X96167205Y-76780256D01*
X96245226Y-76591898D01*
X96285000Y-76391939D01*
X96285000Y-76188061D01*
X96245226Y-75988102D01*
X96167205Y-75799744D01*
X96053937Y-75630226D01*
X95981946Y-75558235D01*
X96431943Y-75858914D01*
X96410837Y-75928491D01*
X96393773Y-76101745D01*
X96410837Y-76274999D01*
X96461373Y-76441596D01*
X96543440Y-76595131D01*
X96653883Y-76729707D01*
X96788459Y-76840150D01*
X96941995Y-76922217D01*
X98096844Y-77400571D01*
X98243307Y-77445000D01*
X69882277Y-77445000D01*
X69608795Y-77418185D01*
X69376774Y-77348133D01*
X69162778Y-77234350D01*
X68974961Y-77081169D01*
X68820471Y-76894424D01*
X68705198Y-76681231D01*
X68633528Y-76449701D01*
X68605000Y-76178276D01*
X68605000Y-74462637D01*
X68752412Y-74660269D01*
X68968645Y-74855178D01*
X69218748Y-75004157D01*
X69493109Y-75101481D01*
X69723000Y-74980814D01*
X69723000Y-73787000D01*
X69977000Y-73787000D01*
X69977000Y-74980814D01*
X70206891Y-75101481D01*
X70481252Y-75004157D01*
X70731355Y-74855178D01*
X70947588Y-74660269D01*
X71120000Y-74429120D01*
X71292412Y-74660269D01*
X71508645Y-74855178D01*
X71758748Y-75004157D01*
X72033109Y-75101481D01*
X72263000Y-74980814D01*
X72263000Y-73787000D01*
X72517000Y-73787000D01*
X72517000Y-74980814D01*
X72746891Y-75101481D01*
X73021252Y-75004157D01*
X73271355Y-74855178D01*
X73487588Y-74660269D01*
X73661641Y-74426920D01*
X73786825Y-74164099D01*
X73831476Y-74016890D01*
X73710155Y-73787000D01*
X72517000Y-73787000D01*
X72263000Y-73787000D01*
X69977000Y-73787000D01*
X69723000Y-73787000D01*
X69703000Y-73787000D01*
X69703000Y-73533000D01*
X69723000Y-73533000D01*
X69723000Y-73513000D01*
X69977000Y-73513000D01*
X69977000Y-73533000D01*
X72263000Y-73533000D01*
X72263000Y-73513000D01*
X72517000Y-73513000D01*
X72517000Y-73533000D01*
X73710155Y-73533000D01*
X73831476Y-73303110D01*
X73786825Y-73155901D01*
X73661641Y-72893080D01*
X73487588Y-72659731D01*
X73271355Y-72464822D01*
X73154466Y-72395195D01*
X73336632Y-72273475D01*
X73543475Y-72066632D01*
X73705990Y-71823411D01*
X73817932Y-71553158D01*
X73875000Y-71266260D01*
X73875000Y-70973740D01*
X73817932Y-70686842D01*
X73786103Y-70610000D01*
X74615199Y-70610000D01*
X76264749Y-72259551D01*
%TA.AperFunction,Conductor*%
D17*
G36*
X76264749Y-72259551D02*
G01*
X76294999Y-72296411D01*
X76324003Y-72320214D01*
X78174790Y-74171002D01*
X78198589Y-74200001D01*
X78314314Y-74294974D01*
X78446343Y-74365546D01*
X78589604Y-74409003D01*
X78701257Y-74420000D01*
X78701265Y-74420000D01*
X78738590Y-74423676D01*
X78775915Y-74420000D01*
X82870199Y-74420000D01*
X84976210Y-76526012D01*
X85000009Y-76555011D01*
X85029007Y-76578809D01*
X85115733Y-76649984D01*
X85209328Y-76700012D01*
X85247763Y-76720556D01*
X85391024Y-76764013D01*
X85502677Y-76775010D01*
X85502686Y-76775010D01*
X85540009Y-76778686D01*
X85577332Y-76775010D01*
X92845209Y-76775010D01*
X92871196Y-76800997D01*
X92894999Y-76830001D01*
X93010724Y-76924974D01*
X93142753Y-76995546D01*
X93286014Y-77039003D01*
X93435000Y-77053677D01*
X93472333Y-77050000D01*
X94546289Y-77050000D01*
X94590226Y-77093937D01*
X94759744Y-77207205D01*
X94948102Y-77285226D01*
X95148061Y-77325000D01*
X95351939Y-77325000D01*
X95551898Y-77285226D01*
X95740256Y-77207205D01*
X95909774Y-77093937D01*
X96053937Y-76949774D01*
X96167205Y-76780256D01*
X96245226Y-76591898D01*
X96285000Y-76391939D01*
X96285000Y-76188061D01*
X96245226Y-75988102D01*
X96167205Y-75799744D01*
X96053937Y-75630226D01*
X95981946Y-75558235D01*
X96431943Y-75858914D01*
X96410837Y-75928491D01*
X96393773Y-76101745D01*
X96410837Y-76274999D01*
X96461373Y-76441596D01*
X96543440Y-76595131D01*
X96653883Y-76729707D01*
X96788459Y-76840150D01*
X96941995Y-76922217D01*
X98096844Y-77400571D01*
X98243307Y-77445000D01*
X69882277Y-77445000D01*
X69608795Y-77418185D01*
X69376774Y-77348133D01*
X69162778Y-77234350D01*
X68974961Y-77081169D01*
X68820471Y-76894424D01*
X68705198Y-76681231D01*
X68633528Y-76449701D01*
X68605000Y-76178276D01*
X68605000Y-74462637D01*
X68752412Y-74660269D01*
X68968645Y-74855178D01*
X69218748Y-75004157D01*
X69493109Y-75101481D01*
X69723000Y-74980814D01*
X69723000Y-73787000D01*
X69977000Y-73787000D01*
X69977000Y-74980814D01*
X70206891Y-75101481D01*
X70481252Y-75004157D01*
X70731355Y-74855178D01*
X70947588Y-74660269D01*
X71120000Y-74429120D01*
X71292412Y-74660269D01*
X71508645Y-74855178D01*
X71758748Y-75004157D01*
X72033109Y-75101481D01*
X72263000Y-74980814D01*
X72263000Y-73787000D01*
X72517000Y-73787000D01*
X72517000Y-74980814D01*
X72746891Y-75101481D01*
X73021252Y-75004157D01*
X73271355Y-74855178D01*
X73487588Y-74660269D01*
X73661641Y-74426920D01*
X73786825Y-74164099D01*
X73831476Y-74016890D01*
X73710155Y-73787000D01*
X72517000Y-73787000D01*
X72263000Y-73787000D01*
X69977000Y-73787000D01*
X69723000Y-73787000D01*
X69703000Y-73787000D01*
X69703000Y-73533000D01*
X69723000Y-73533000D01*
X69723000Y-73513000D01*
X69977000Y-73513000D01*
X69977000Y-73533000D01*
X72263000Y-73533000D01*
X72263000Y-73513000D01*
X72517000Y-73513000D01*
X72517000Y-73533000D01*
X73710155Y-73533000D01*
X73831476Y-73303110D01*
X73786825Y-73155901D01*
X73661641Y-72893080D01*
X73487588Y-72659731D01*
X73271355Y-72464822D01*
X73154466Y-72395195D01*
X73336632Y-72273475D01*
X73543475Y-72066632D01*
X73705990Y-71823411D01*
X73817932Y-71553158D01*
X73875000Y-71266260D01*
X73875000Y-70973740D01*
X73817932Y-70686842D01*
X73786103Y-70610000D01*
X74615199Y-70610000D01*
X76264749Y-72259551D01*
G37*
%TD.AperFunction*%
D16*
X82685208Y-71695010D02*
X83060001Y-72069802D01*
X83060000Y-72900000D01*
X82096568Y-72900000D01*
X82095000Y-72675750D01*
X81936250Y-72517000D01*
X81087000Y-72517000D01*
X81087000Y-72537000D01*
X80833000Y-72537000D01*
X80833000Y-72517000D01*
X80813000Y-72517000D01*
X80813000Y-72263000D01*
X80833000Y-72263000D01*
X80833000Y-72243000D01*
X81087000Y-72243000D01*
X81087000Y-72263000D01*
X81936250Y-72263000D01*
X82095000Y-72104250D01*
X82097862Y-71695009D01*
X82685208Y-71695010D01*
%TA.AperFunction,Conductor*%
D17*
G36*
X82685208Y-71695010D02*
G01*
X83060001Y-72069802D01*
X83060000Y-72900000D01*
X82096568Y-72900000D01*
X82095000Y-72675750D01*
X81936250Y-72517000D01*
X81087000Y-72517000D01*
X81087000Y-72537000D01*
X80833000Y-72537000D01*
X80833000Y-72517000D01*
X80813000Y-72517000D01*
X80813000Y-72263000D01*
X80833000Y-72263000D01*
X80833000Y-72243000D01*
X81087000Y-72243000D01*
X81087000Y-72263000D01*
X81936250Y-72263000D01*
X82095000Y-72104250D01*
X82097862Y-71695009D01*
X82685208Y-71695010D01*
G37*
%TD.AperFunction*%
D16*
X98096844Y-57219429D02*
X96941995Y-57697783D01*
X96788458Y-57779850D01*
X96653883Y-57890293D01*
X96543440Y-58024869D01*
X96461373Y-58178405D01*
X96410837Y-58345001D01*
X96393773Y-58518255D01*
X96410837Y-58691510D01*
X96431943Y-58761086D01*
X95679564Y-59263810D01*
X95623360Y-59217685D01*
X95469824Y-59135618D01*
X95303228Y-59085082D01*
X95129974Y-59068018D01*
X94956720Y-59085082D01*
X94790124Y-59135618D01*
X94636588Y-59217685D01*
X94502012Y-59328128D01*
X93618128Y-60212012D01*
X93521781Y-60329412D01*
X93416580Y-60259119D01*
X93228222Y-60181098D01*
X93216728Y-60178812D01*
X93214442Y-60167318D01*
X93136421Y-59978960D01*
X93023153Y-59809442D01*
X92878990Y-59665279D01*
X92709472Y-59552011D01*
X92521114Y-59473990D01*
X92509620Y-59471704D01*
X92507334Y-59460210D01*
X92429313Y-59271852D01*
X92316045Y-59102334D01*
X92171882Y-58958171D01*
X92002364Y-58844903D01*
X91814006Y-58766882D01*
X91802512Y-58764596D01*
X91800226Y-58753102D01*
X91722205Y-58564744D01*
X91608937Y-58395226D01*
X91464774Y-58251063D01*
X91295256Y-58137795D01*
X91106898Y-58059774D01*
X90906939Y-58020000D01*
X90703061Y-58020000D01*
X90503102Y-58059774D01*
X90314744Y-58137795D01*
X90145226Y-58251063D01*
X90001063Y-58395226D01*
X89887795Y-58564744D01*
X89809774Y-58753102D01*
X89770000Y-58953061D01*
X89770000Y-59015198D01*
X89480381Y-59304818D01*
X89432962Y-59247038D01*
X89298387Y-59136595D01*
X89144852Y-59054528D01*
X88978256Y-59003992D01*
X88805002Y-58986928D01*
X88279998Y-58986928D01*
X88106744Y-59003992D01*
X87940148Y-59054528D01*
X87786613Y-59136595D01*
X87652038Y-59247038D01*
X87630000Y-59273891D01*
X87607962Y-59247038D01*
X87473387Y-59136595D01*
X87319852Y-59054528D01*
X87153256Y-59003992D01*
X86980002Y-58986928D01*
X86454998Y-58986928D01*
X86281744Y-59003992D01*
X86115148Y-59054528D01*
X85961613Y-59136595D01*
X85827038Y-59247038D01*
X85716595Y-59381613D01*
X85634528Y-59535148D01*
X85583992Y-59701744D01*
X85566928Y-59874998D01*
X85566928Y-60400770D01*
X85132699Y-60835000D01*
X84059870Y-60835000D01*
X84085812Y-60749482D01*
X84098072Y-60625000D01*
X84095000Y-60610750D01*
X83936250Y-60452000D01*
X82612000Y-60452000D01*
X82612000Y-60472000D01*
X82358000Y-60472000D01*
X82358000Y-60452000D01*
X81033750Y-60452000D01*
X80901892Y-60583858D01*
X80343034Y-60025000D01*
X80871928Y-60025000D01*
X80875000Y-60039250D01*
X81033750Y-60198000D01*
X82358000Y-60198000D01*
X82358000Y-59548750D01*
X82612000Y-59548750D01*
X82612000Y-60198000D01*
X83936250Y-60198000D01*
X84095000Y-60039250D01*
X84098072Y-60025000D01*
X84085812Y-59900518D01*
X84049502Y-59780820D01*
X83990537Y-59670506D01*
X83911185Y-59573815D01*
X83814494Y-59494463D01*
X83704180Y-59435498D01*
X83584482Y-59399188D01*
X83460000Y-59386928D01*
X82770750Y-59390000D01*
X82612000Y-59548750D01*
X82358000Y-59548750D01*
X82199250Y-59390000D01*
X81510000Y-59386928D01*
X81385518Y-59399188D01*
X81265820Y-59435498D01*
X81155506Y-59494463D01*
X81058815Y-59573815D01*
X80979463Y-59670506D01*
X80920498Y-59780820D01*
X80884188Y-59900518D01*
X80871928Y-60025000D01*
X80343034Y-60025000D01*
X80132036Y-59814003D01*
X80108233Y-59784999D01*
X79992508Y-59690026D01*
X79860479Y-59619454D01*
X79717218Y-59575997D01*
X79605565Y-59565000D01*
X79605554Y-59565000D01*
X79568232Y-59561324D01*
X79530910Y-59565000D01*
X78852976Y-59565000D01*
X78797829Y-59519742D01*
X78661582Y-59446916D01*
X78513745Y-59402071D01*
X78360000Y-59386928D01*
X76710000Y-59386928D01*
X76556255Y-59402071D01*
X76408418Y-59446916D01*
X76272171Y-59519742D01*
X76152749Y-59617749D01*
X76054742Y-59737171D01*
X75981916Y-59873418D01*
X75937071Y-60021255D01*
X75921928Y-60175000D01*
X75921928Y-60209990D01*
X74342323Y-60209990D01*
X74304990Y-60206313D01*
X74267657Y-60209990D01*
X74156004Y-60220987D01*
X74012743Y-60264444D01*
X73880714Y-60335016D01*
X73774561Y-60422134D01*
X73705990Y-60256589D01*
X73543475Y-60013368D01*
X73336632Y-59806525D01*
X73214621Y-59725000D01*
X74226289Y-59725000D01*
X74270226Y-59768937D01*
X74439744Y-59882205D01*
X74628102Y-59960226D01*
X74828061Y-60000000D01*
X75031939Y-60000000D01*
X75231898Y-59960226D01*
X75420256Y-59882205D01*
X75589774Y-59768937D01*
X75733937Y-59624774D01*
X75847205Y-59455256D01*
X75925226Y-59266898D01*
X75965000Y-59066939D01*
X75965000Y-58863061D01*
X75925226Y-58663102D01*
X75847205Y-58474744D01*
X75733937Y-58305226D01*
X75589774Y-58161063D01*
X75420256Y-58047795D01*
X75231898Y-57969774D01*
X75031939Y-57930000D01*
X74828061Y-57930000D01*
X74628102Y-57969774D01*
X74439744Y-58047795D01*
X74270226Y-58161063D01*
X74226289Y-58205000D01*
X71882323Y-58205000D01*
X71845000Y-58201324D01*
X71807677Y-58205000D01*
X71807667Y-58205000D01*
X71696014Y-58215997D01*
X71552753Y-58259454D01*
X71512610Y-58280911D01*
X71480226Y-58118102D01*
X71402205Y-57929744D01*
X71288937Y-57760226D01*
X71144774Y-57616063D01*
X70975256Y-57502795D01*
X70786898Y-57424774D01*
X70586939Y-57385000D01*
X70383061Y-57385000D01*
X70183102Y-57424774D01*
X69994744Y-57502795D01*
X69825226Y-57616063D01*
X69681063Y-57760226D01*
X69644787Y-57814517D01*
X69564997Y-57879999D01*
X69541199Y-57908997D01*
X68605000Y-58845197D01*
X68605000Y-58452277D01*
X68631815Y-58178796D01*
X68701867Y-57946774D01*
X68815650Y-57732778D01*
X68968832Y-57544959D01*
X69155577Y-57390470D01*
X69368769Y-57275199D01*
X69600300Y-57203528D01*
X69871725Y-57175000D01*
X98243308Y-57175000D01*
X98096844Y-57219429D01*
%TA.AperFunction,Conductor*%
D17*
G36*
X98096844Y-57219429D02*
G01*
X96941995Y-57697783D01*
X96788458Y-57779850D01*
X96653883Y-57890293D01*
X96543440Y-58024869D01*
X96461373Y-58178405D01*
X96410837Y-58345001D01*
X96393773Y-58518255D01*
X96410837Y-58691510D01*
X96431943Y-58761086D01*
X95679564Y-59263810D01*
X95623360Y-59217685D01*
X95469824Y-59135618D01*
X95303228Y-59085082D01*
X95129974Y-59068018D01*
X94956720Y-59085082D01*
X94790124Y-59135618D01*
X94636588Y-59217685D01*
X94502012Y-59328128D01*
X93618128Y-60212012D01*
X93521781Y-60329412D01*
X93416580Y-60259119D01*
X93228222Y-60181098D01*
X93216728Y-60178812D01*
X93214442Y-60167318D01*
X93136421Y-59978960D01*
X93023153Y-59809442D01*
X92878990Y-59665279D01*
X92709472Y-59552011D01*
X92521114Y-59473990D01*
X92509620Y-59471704D01*
X92507334Y-59460210D01*
X92429313Y-59271852D01*
X92316045Y-59102334D01*
X92171882Y-58958171D01*
X92002364Y-58844903D01*
X91814006Y-58766882D01*
X91802512Y-58764596D01*
X91800226Y-58753102D01*
X91722205Y-58564744D01*
X91608937Y-58395226D01*
X91464774Y-58251063D01*
X91295256Y-58137795D01*
X91106898Y-58059774D01*
X90906939Y-58020000D01*
X90703061Y-58020000D01*
X90503102Y-58059774D01*
X90314744Y-58137795D01*
X90145226Y-58251063D01*
X90001063Y-58395226D01*
X89887795Y-58564744D01*
X89809774Y-58753102D01*
X89770000Y-58953061D01*
X89770000Y-59015198D01*
X89480381Y-59304818D01*
X89432962Y-59247038D01*
X89298387Y-59136595D01*
X89144852Y-59054528D01*
X88978256Y-59003992D01*
X88805002Y-58986928D01*
X88279998Y-58986928D01*
X88106744Y-59003992D01*
X87940148Y-59054528D01*
X87786613Y-59136595D01*
X87652038Y-59247038D01*
X87630000Y-59273891D01*
X87607962Y-59247038D01*
X87473387Y-59136595D01*
X87319852Y-59054528D01*
X87153256Y-59003992D01*
X86980002Y-58986928D01*
X86454998Y-58986928D01*
X86281744Y-59003992D01*
X86115148Y-59054528D01*
X85961613Y-59136595D01*
X85827038Y-59247038D01*
X85716595Y-59381613D01*
X85634528Y-59535148D01*
X85583992Y-59701744D01*
X85566928Y-59874998D01*
X85566928Y-60400770D01*
X85132699Y-60835000D01*
X84059870Y-60835000D01*
X84085812Y-60749482D01*
X84098072Y-60625000D01*
X84095000Y-60610750D01*
X83936250Y-60452000D01*
X82612000Y-60452000D01*
X82612000Y-60472000D01*
X82358000Y-60472000D01*
X82358000Y-60452000D01*
X81033750Y-60452000D01*
X80901892Y-60583858D01*
X80343034Y-60025000D01*
X80871928Y-60025000D01*
X80875000Y-60039250D01*
X81033750Y-60198000D01*
X82358000Y-60198000D01*
X82358000Y-59548750D01*
X82612000Y-59548750D01*
X82612000Y-60198000D01*
X83936250Y-60198000D01*
X84095000Y-60039250D01*
X84098072Y-60025000D01*
X84085812Y-59900518D01*
X84049502Y-59780820D01*
X83990537Y-59670506D01*
X83911185Y-59573815D01*
X83814494Y-59494463D01*
X83704180Y-59435498D01*
X83584482Y-59399188D01*
X83460000Y-59386928D01*
X82770750Y-59390000D01*
X82612000Y-59548750D01*
X82358000Y-59548750D01*
X82199250Y-59390000D01*
X81510000Y-59386928D01*
X81385518Y-59399188D01*
X81265820Y-59435498D01*
X81155506Y-59494463D01*
X81058815Y-59573815D01*
X80979463Y-59670506D01*
X80920498Y-59780820D01*
X80884188Y-59900518D01*
X80871928Y-60025000D01*
X80343034Y-60025000D01*
X80132036Y-59814003D01*
X80108233Y-59784999D01*
X79992508Y-59690026D01*
X79860479Y-59619454D01*
X79717218Y-59575997D01*
X79605565Y-59565000D01*
X79605554Y-59565000D01*
X79568232Y-59561324D01*
X79530910Y-59565000D01*
X78852976Y-59565000D01*
X78797829Y-59519742D01*
X78661582Y-59446916D01*
X78513745Y-59402071D01*
X78360000Y-59386928D01*
X76710000Y-59386928D01*
X76556255Y-59402071D01*
X76408418Y-59446916D01*
X76272171Y-59519742D01*
X76152749Y-59617749D01*
X76054742Y-59737171D01*
X75981916Y-59873418D01*
X75937071Y-60021255D01*
X75921928Y-60175000D01*
X75921928Y-60209990D01*
X74342323Y-60209990D01*
X74304990Y-60206313D01*
X74267657Y-60209990D01*
X74156004Y-60220987D01*
X74012743Y-60264444D01*
X73880714Y-60335016D01*
X73774561Y-60422134D01*
X73705990Y-60256589D01*
X73543475Y-60013368D01*
X73336632Y-59806525D01*
X73214621Y-59725000D01*
X74226289Y-59725000D01*
X74270226Y-59768937D01*
X74439744Y-59882205D01*
X74628102Y-59960226D01*
X74828061Y-60000000D01*
X75031939Y-60000000D01*
X75231898Y-59960226D01*
X75420256Y-59882205D01*
X75589774Y-59768937D01*
X75733937Y-59624774D01*
X75847205Y-59455256D01*
X75925226Y-59266898D01*
X75965000Y-59066939D01*
X75965000Y-58863061D01*
X75925226Y-58663102D01*
X75847205Y-58474744D01*
X75733937Y-58305226D01*
X75589774Y-58161063D01*
X75420256Y-58047795D01*
X75231898Y-57969774D01*
X75031939Y-57930000D01*
X74828061Y-57930000D01*
X74628102Y-57969774D01*
X74439744Y-58047795D01*
X74270226Y-58161063D01*
X74226289Y-58205000D01*
X71882323Y-58205000D01*
X71845000Y-58201324D01*
X71807677Y-58205000D01*
X71807667Y-58205000D01*
X71696014Y-58215997D01*
X71552753Y-58259454D01*
X71512610Y-58280911D01*
X71480226Y-58118102D01*
X71402205Y-57929744D01*
X71288937Y-57760226D01*
X71144774Y-57616063D01*
X70975256Y-57502795D01*
X70786898Y-57424774D01*
X70586939Y-57385000D01*
X70383061Y-57385000D01*
X70183102Y-57424774D01*
X69994744Y-57502795D01*
X69825226Y-57616063D01*
X69681063Y-57760226D01*
X69644787Y-57814517D01*
X69564997Y-57879999D01*
X69541199Y-57908997D01*
X68605000Y-58845197D01*
X68605000Y-58452277D01*
X68631815Y-58178796D01*
X68701867Y-57946774D01*
X68815650Y-57732778D01*
X68968832Y-57544959D01*
X69155577Y-57390470D01*
X69368769Y-57275199D01*
X69600300Y-57203528D01*
X69871725Y-57175000D01*
X98243308Y-57175000D01*
X98096844Y-57219429D01*
G37*
%TD.AperFunction*%
%TD*%
M02*
