M48
; DRILL file {KiCad 5.1.9-73d0e3b20d~88~ubuntu20.04.1} date Sat Mar 27 19:40:54 2021
; FORMAT={-:-/ absolute / inch / decimal}
; #@! TF.CreationDate,2021-03-27T19:40:54+01:00
; #@! TF.GenerationSoftware,Kicad,Pcbnew,5.1.9-73d0e3b20d~88~ubuntu20.04.1
; #@! TF.FileFunction,Plated,1,2,PTH
FMAT,2
INCH
T1C0.0157
T2C0.0394
%
G90
G05
T1
X2.775Y-2.3
X2.9037Y-2.3785
X2.925Y-2.5285
X2.9465Y-2.575
X2.95Y-2.3215
X2.975Y-2.725
X3.1Y-2.8
X3.1976Y-2.6953
X3.225Y-2.85
X3.225Y-2.9285
X3.55Y-2.6535
X3.55Y-2.7
X3.55Y-2.775
X3.55Y-2.85
X3.55Y-2.925
X3.575Y-2.325
X3.5785Y-2.5493
X3.6028Y-2.3528
X3.6307Y-2.3807
X3.65Y-3.0213
X3.6585Y-2.4085
X3.675Y-2.7
X3.7Y-2.975
X3.75Y-3.0035
X3.85Y-2.5965
X3.8673Y-2.7827
X3.9Y-2.55
X3.9205Y-2.8339
X3.9423Y-2.549
X3.9458Y-2.7799
X3.9715Y-2.75
X3.9813Y-2.5542
X4.0Y-2.6
X4.0Y-2.65
X4.0157Y-2.3291
X4.0327Y-2.7577
X4.0549Y-2.5201
X4.0612Y-2.8
X4.1Y-2.35
X4.1011Y-2.7995
X4.1062Y-2.5659
X4.125Y-2.9457
X4.1286Y-2.599
X4.15Y-2.7
X4.1959Y-3.0362
X4.225Y-2.425
X4.225Y-2.875
X4.25Y-3.0
X4.275Y-2.475
X4.275Y-2.775
X4.3Y-3.0
X4.35Y-2.35
X4.425Y-2.9
T2
X2.75Y-2.4
X2.75Y-2.5
X2.75Y-2.6
X2.75Y-2.7
X2.75Y-2.8
X2.75Y-2.9
X2.85Y-2.4
X2.85Y-2.5
X2.85Y-2.6
X2.85Y-2.7
X2.85Y-2.8
X2.85Y-2.9
T0
M30
