%TF.GenerationSoftware,KiCad,Pcbnew,5.1.9-73d0e3b20d~88~ubuntu20.04.1*%
%TF.CreationDate,2021-03-27T19:40:49+01:00*%
%TF.ProjectId,circledisplay,63697263-6c65-4646-9973-706c61792e6b,rev?*%
%TF.SameCoordinates,Original*%
%TF.FileFunction,Soldermask,Top*%
%TF.FilePolarity,Negative*%
%FSLAX46Y46*%
G04 Gerber Fmt 4.6, Leading zero omitted, Abs format (unit mm)*
G04 Created by KiCad (PCBNEW 5.1.9-73d0e3b20d~88~ubuntu20.04.1) date 2021-03-27 19:40:49*
%MOMM*%
%LPD*%
G01*
G04 APERTURE LIST*
%ADD10R,1.700000X1.700000*%
%ADD11O,1.700000X1.700000*%
%ADD12R,0.900000X0.800000*%
G04 APERTURE END LIST*
%TO.C,C1*%
G36*
G01*
X117655000Y-59215000D02*
X117655000Y-60165000D01*
G75*
G02*
X117405000Y-60415000I-250000J0D01*
G01*
X116905000Y-60415000D01*
G75*
G02*
X116655000Y-60165000I0J250000D01*
G01*
X116655000Y-59215000D01*
G75*
G02*
X116905000Y-58965000I250000J0D01*
G01*
X117405000Y-58965000D01*
G75*
G02*
X117655000Y-59215000I0J-250000D01*
G01*
G37*
G36*
G01*
X115755000Y-59215000D02*
X115755000Y-60165000D01*
G75*
G02*
X115505000Y-60415000I-250000J0D01*
G01*
X115005000Y-60415000D01*
G75*
G02*
X114755000Y-60165000I0J250000D01*
G01*
X114755000Y-59215000D01*
G75*
G02*
X115005000Y-58965000I250000J0D01*
G01*
X115505000Y-58965000D01*
G75*
G02*
X115755000Y-59215000I0J-250000D01*
G01*
G37*
%TD*%
%TO.C,C2*%
G36*
G01*
X115755000Y-74455000D02*
X115755000Y-75405000D01*
G75*
G02*
X115505000Y-75655000I-250000J0D01*
G01*
X115005000Y-75655000D01*
G75*
G02*
X114755000Y-75405000I0J250000D01*
G01*
X114755000Y-74455000D01*
G75*
G02*
X115005000Y-74205000I250000J0D01*
G01*
X115505000Y-74205000D01*
G75*
G02*
X115755000Y-74455000I0J-250000D01*
G01*
G37*
G36*
G01*
X117655000Y-74455000D02*
X117655000Y-75405000D01*
G75*
G02*
X117405000Y-75655000I-250000J0D01*
G01*
X116905000Y-75655000D01*
G75*
G02*
X116655000Y-75405000I0J250000D01*
G01*
X116655000Y-74455000D01*
G75*
G02*
X116905000Y-74205000I250000J0D01*
G01*
X117405000Y-74205000D01*
G75*
G02*
X117655000Y-74455000I0J-250000D01*
G01*
G37*
%TD*%
%TO.C,C3*%
G36*
G01*
X81460000Y-71915000D02*
X81460000Y-72865000D01*
G75*
G02*
X81210000Y-73115000I-250000J0D01*
G01*
X80710000Y-73115000D01*
G75*
G02*
X80460000Y-72865000I0J250000D01*
G01*
X80460000Y-71915000D01*
G75*
G02*
X80710000Y-71665000I250000J0D01*
G01*
X81210000Y-71665000D01*
G75*
G02*
X81460000Y-71915000I0J-250000D01*
G01*
G37*
G36*
G01*
X79560000Y-71915000D02*
X79560000Y-72865000D01*
G75*
G02*
X79310000Y-73115000I-250000J0D01*
G01*
X78810000Y-73115000D01*
G75*
G02*
X78560000Y-72865000I0J250000D01*
G01*
X78560000Y-71915000D01*
G75*
G02*
X78810000Y-71665000I250000J0D01*
G01*
X79310000Y-71665000D01*
G75*
G02*
X79560000Y-71915000I0J-250000D01*
G01*
G37*
%TD*%
%TO.C,D1*%
G36*
G01*
X100975000Y-57285000D02*
X102225000Y-57285000D01*
G75*
G02*
X102475000Y-57535000I0J-250000D01*
G01*
X102475000Y-58285000D01*
G75*
G02*
X102225000Y-58535000I-250000J0D01*
G01*
X100975000Y-58535000D01*
G75*
G02*
X100725000Y-58285000I0J250000D01*
G01*
X100725000Y-57535000D01*
G75*
G02*
X100975000Y-57285000I250000J0D01*
G01*
G37*
G36*
G01*
X100975000Y-60085000D02*
X102225000Y-60085000D01*
G75*
G02*
X102475000Y-60335000I0J-250000D01*
G01*
X102475000Y-61085000D01*
G75*
G02*
X102225000Y-61335000I-250000J0D01*
G01*
X100975000Y-61335000D01*
G75*
G02*
X100725000Y-61085000I0J250000D01*
G01*
X100725000Y-60335000D01*
G75*
G02*
X100975000Y-60085000I250000J0D01*
G01*
G37*
%TD*%
%TO.C,D2*%
G36*
G01*
X103787463Y-60395793D02*
X104942312Y-60874147D01*
G75*
G02*
X105077611Y-61200788I-95671J-230970D01*
G01*
X104790598Y-61893698D01*
G75*
G02*
X104463957Y-62028997I-230970J95671D01*
G01*
X103309108Y-61550643D01*
G75*
G02*
X103173809Y-61224002I95671J230970D01*
G01*
X103460822Y-60531092D01*
G75*
G02*
X103787463Y-60395793I230970J-95671D01*
G01*
G37*
G36*
G01*
X104858977Y-57808931D02*
X106013826Y-58287285D01*
G75*
G02*
X106149125Y-58613926I-95671J-230970D01*
G01*
X105862112Y-59306836D01*
G75*
G02*
X105535471Y-59442135I-230970J95671D01*
G01*
X104380622Y-58963781D01*
G75*
G02*
X104245323Y-58637140I95671J230970D01*
G01*
X104532336Y-57944230D01*
G75*
G02*
X104858977Y-57808931I230970J-95671D01*
G01*
G37*
%TD*%
%TO.C,D3*%
G36*
G01*
X108246803Y-59779313D02*
X109130687Y-60663197D01*
G75*
G02*
X109130687Y-61016751I-176777J-176777D01*
G01*
X108600357Y-61547081D01*
G75*
G02*
X108246803Y-61547081I-176777J176777D01*
G01*
X107362919Y-60663197D01*
G75*
G02*
X107362919Y-60309643I176777J176777D01*
G01*
X107893249Y-59779313D01*
G75*
G02*
X108246803Y-59779313I176777J-176777D01*
G01*
G37*
G36*
G01*
X106266905Y-61759211D02*
X107150789Y-62643095D01*
G75*
G02*
X107150789Y-62996649I-176777J-176777D01*
G01*
X106620459Y-63526979D01*
G75*
G02*
X106266905Y-63526979I-176777J176777D01*
G01*
X105383021Y-62643095D01*
G75*
G02*
X105383021Y-62289541I176777J176777D01*
G01*
X105913351Y-61759211D01*
G75*
G02*
X106266905Y-61759211I176777J-176777D01*
G01*
G37*
%TD*%
%TO.C,D4*%
G36*
G01*
X108035853Y-63967688D02*
X108514207Y-65122537D01*
G75*
G02*
X108378908Y-65449178I-230970J-95671D01*
G01*
X107685998Y-65736191D01*
G75*
G02*
X107359357Y-65600892I-95671J230970D01*
G01*
X106881003Y-64446043D01*
G75*
G02*
X107016302Y-64119402I230970J95671D01*
G01*
X107709212Y-63832389D01*
G75*
G02*
X108035853Y-63967688I95671J-230970D01*
G01*
G37*
G36*
G01*
X110622715Y-62896174D02*
X111101069Y-64051023D01*
G75*
G02*
X110965770Y-64377664I-230970J-95671D01*
G01*
X110272860Y-64664677D01*
G75*
G02*
X109946219Y-64529378I-95671J230970D01*
G01*
X109467865Y-63374529D01*
G75*
G02*
X109603164Y-63047888I230970J95671D01*
G01*
X110296074Y-62760875D01*
G75*
G02*
X110622715Y-62896174I95671J-230970D01*
G01*
G37*
%TD*%
%TO.C,D5*%
G36*
G01*
X111625000Y-66685000D02*
X111625000Y-67935000D01*
G75*
G02*
X111375000Y-68185000I-250000J0D01*
G01*
X110625000Y-68185000D01*
G75*
G02*
X110375000Y-67935000I0J250000D01*
G01*
X110375000Y-66685000D01*
G75*
G02*
X110625000Y-66435000I250000J0D01*
G01*
X111375000Y-66435000D01*
G75*
G02*
X111625000Y-66685000I0J-250000D01*
G01*
G37*
G36*
G01*
X108825000Y-66685000D02*
X108825000Y-67935000D01*
G75*
G02*
X108575000Y-68185000I-250000J0D01*
G01*
X107825000Y-68185000D01*
G75*
G02*
X107575000Y-67935000I0J250000D01*
G01*
X107575000Y-66685000D01*
G75*
G02*
X107825000Y-66435000I250000J0D01*
G01*
X108575000Y-66435000D01*
G75*
G02*
X108825000Y-66685000I0J-250000D01*
G01*
G37*
%TD*%
%TO.C,D6*%
G36*
G01*
X108514207Y-69497463D02*
X108035853Y-70652312D01*
G75*
G02*
X107709212Y-70787611I-230970J95671D01*
G01*
X107016302Y-70500598D01*
G75*
G02*
X106881003Y-70173957I95671J230970D01*
G01*
X107359357Y-69019108D01*
G75*
G02*
X107685998Y-68883809I230970J-95671D01*
G01*
X108378908Y-69170822D01*
G75*
G02*
X108514207Y-69497463I-95671J-230970D01*
G01*
G37*
G36*
G01*
X111101069Y-70568977D02*
X110622715Y-71723826D01*
G75*
G02*
X110296074Y-71859125I-230970J95671D01*
G01*
X109603164Y-71572112D01*
G75*
G02*
X109467865Y-71245471I95671J230970D01*
G01*
X109946219Y-70090622D01*
G75*
G02*
X110272860Y-69955323I230970J-95671D01*
G01*
X110965770Y-70242336D01*
G75*
G02*
X111101069Y-70568977I-95671J-230970D01*
G01*
G37*
%TD*%
%TO.C,D7*%
G36*
G01*
X109130687Y-73956803D02*
X108246803Y-74840687D01*
G75*
G02*
X107893249Y-74840687I-176777J176777D01*
G01*
X107362919Y-74310357D01*
G75*
G02*
X107362919Y-73956803I176777J176777D01*
G01*
X108246803Y-73072919D01*
G75*
G02*
X108600357Y-73072919I176777J-176777D01*
G01*
X109130687Y-73603249D01*
G75*
G02*
X109130687Y-73956803I-176777J-176777D01*
G01*
G37*
G36*
G01*
X107150789Y-71976905D02*
X106266905Y-72860789D01*
G75*
G02*
X105913351Y-72860789I-176777J176777D01*
G01*
X105383021Y-72330459D01*
G75*
G02*
X105383021Y-71976905I176777J176777D01*
G01*
X106266905Y-71093021D01*
G75*
G02*
X106620459Y-71093021I176777J-176777D01*
G01*
X107150789Y-71623351D01*
G75*
G02*
X107150789Y-71976905I-176777J-176777D01*
G01*
G37*
%TD*%
%TO.C,D8*%
G36*
G01*
X104942312Y-73745853D02*
X103787463Y-74224207D01*
G75*
G02*
X103460822Y-74088908I-95671J230970D01*
G01*
X103173809Y-73395998D01*
G75*
G02*
X103309108Y-73069357I230970J95671D01*
G01*
X104463957Y-72591003D01*
G75*
G02*
X104790598Y-72726302I95671J-230970D01*
G01*
X105077611Y-73419212D01*
G75*
G02*
X104942312Y-73745853I-230970J-95671D01*
G01*
G37*
G36*
G01*
X106013826Y-76332715D02*
X104858977Y-76811069D01*
G75*
G02*
X104532336Y-76675770I-95671J230970D01*
G01*
X104245323Y-75982860D01*
G75*
G02*
X104380622Y-75656219I230970J95671D01*
G01*
X105535471Y-75177865D01*
G75*
G02*
X105862112Y-75313164I95671J-230970D01*
G01*
X106149125Y-76006074D01*
G75*
G02*
X106013826Y-76332715I-230970J-95671D01*
G01*
G37*
%TD*%
%TO.C,D9*%
G36*
G01*
X102225000Y-77335000D02*
X100975000Y-77335000D01*
G75*
G02*
X100725000Y-77085000I0J250000D01*
G01*
X100725000Y-76335000D01*
G75*
G02*
X100975000Y-76085000I250000J0D01*
G01*
X102225000Y-76085000D01*
G75*
G02*
X102475000Y-76335000I0J-250000D01*
G01*
X102475000Y-77085000D01*
G75*
G02*
X102225000Y-77335000I-250000J0D01*
G01*
G37*
G36*
G01*
X102225000Y-74535000D02*
X100975000Y-74535000D01*
G75*
G02*
X100725000Y-74285000I0J250000D01*
G01*
X100725000Y-73535000D01*
G75*
G02*
X100975000Y-73285000I250000J0D01*
G01*
X102225000Y-73285000D01*
G75*
G02*
X102475000Y-73535000I0J-250000D01*
G01*
X102475000Y-74285000D01*
G75*
G02*
X102225000Y-74535000I-250000J0D01*
G01*
G37*
%TD*%
%TO.C,D10*%
G36*
G01*
X99412537Y-74224207D02*
X98257688Y-73745853D01*
G75*
G02*
X98122389Y-73419212I95671J230970D01*
G01*
X98409402Y-72726302D01*
G75*
G02*
X98736043Y-72591003I230970J-95671D01*
G01*
X99890892Y-73069357D01*
G75*
G02*
X100026191Y-73395998I-95671J-230970D01*
G01*
X99739178Y-74088908D01*
G75*
G02*
X99412537Y-74224207I-230970J95671D01*
G01*
G37*
G36*
G01*
X98341023Y-76811069D02*
X97186174Y-76332715D01*
G75*
G02*
X97050875Y-76006074I95671J230970D01*
G01*
X97337888Y-75313164D01*
G75*
G02*
X97664529Y-75177865I230970J-95671D01*
G01*
X98819378Y-75656219D01*
G75*
G02*
X98954677Y-75982860I-95671J-230970D01*
G01*
X98667664Y-76675770D01*
G75*
G02*
X98341023Y-76811069I-230970J95671D01*
G01*
G37*
%TD*%
%TO.C,D11*%
G36*
G01*
X94953197Y-74840687D02*
X94069313Y-73956803D01*
G75*
G02*
X94069313Y-73603249I176777J176777D01*
G01*
X94599643Y-73072919D01*
G75*
G02*
X94953197Y-73072919I176777J-176777D01*
G01*
X95837081Y-73956803D01*
G75*
G02*
X95837081Y-74310357I-176777J-176777D01*
G01*
X95306751Y-74840687D01*
G75*
G02*
X94953197Y-74840687I-176777J176777D01*
G01*
G37*
G36*
G01*
X96933095Y-72860789D02*
X96049211Y-71976905D01*
G75*
G02*
X96049211Y-71623351I176777J176777D01*
G01*
X96579541Y-71093021D01*
G75*
G02*
X96933095Y-71093021I176777J-176777D01*
G01*
X97816979Y-71976905D01*
G75*
G02*
X97816979Y-72330459I-176777J-176777D01*
G01*
X97286649Y-72860789D01*
G75*
G02*
X96933095Y-72860789I-176777J176777D01*
G01*
G37*
%TD*%
%TO.C,D12*%
G36*
G01*
X95164147Y-70652312D02*
X94685793Y-69497463D01*
G75*
G02*
X94821092Y-69170822I230970J95671D01*
G01*
X95514002Y-68883809D01*
G75*
G02*
X95840643Y-69019108I95671J-230970D01*
G01*
X96318997Y-70173957D01*
G75*
G02*
X96183698Y-70500598I-230970J-95671D01*
G01*
X95490788Y-70787611D01*
G75*
G02*
X95164147Y-70652312I-95671J230970D01*
G01*
G37*
G36*
G01*
X92577285Y-71723826D02*
X92098931Y-70568977D01*
G75*
G02*
X92234230Y-70242336I230970J95671D01*
G01*
X92927140Y-69955323D01*
G75*
G02*
X93253781Y-70090622I95671J-230970D01*
G01*
X93732135Y-71245471D01*
G75*
G02*
X93596836Y-71572112I-230970J-95671D01*
G01*
X92903926Y-71859125D01*
G75*
G02*
X92577285Y-71723826I-95671J230970D01*
G01*
G37*
%TD*%
%TO.C,D13*%
G36*
G01*
X91575000Y-67935000D02*
X91575000Y-66685000D01*
G75*
G02*
X91825000Y-66435000I250000J0D01*
G01*
X92575000Y-66435000D01*
G75*
G02*
X92825000Y-66685000I0J-250000D01*
G01*
X92825000Y-67935000D01*
G75*
G02*
X92575000Y-68185000I-250000J0D01*
G01*
X91825000Y-68185000D01*
G75*
G02*
X91575000Y-67935000I0J250000D01*
G01*
G37*
G36*
G01*
X94375000Y-67935000D02*
X94375000Y-66685000D01*
G75*
G02*
X94625000Y-66435000I250000J0D01*
G01*
X95375000Y-66435000D01*
G75*
G02*
X95625000Y-66685000I0J-250000D01*
G01*
X95625000Y-67935000D01*
G75*
G02*
X95375000Y-68185000I-250000J0D01*
G01*
X94625000Y-68185000D01*
G75*
G02*
X94375000Y-67935000I0J250000D01*
G01*
G37*
%TD*%
%TO.C,D14*%
G36*
G01*
X94685793Y-65122537D02*
X95164147Y-63967688D01*
G75*
G02*
X95490788Y-63832389I230970J-95671D01*
G01*
X96183698Y-64119402D01*
G75*
G02*
X96318997Y-64446043I-95671J-230970D01*
G01*
X95840643Y-65600892D01*
G75*
G02*
X95514002Y-65736191I-230970J95671D01*
G01*
X94821092Y-65449178D01*
G75*
G02*
X94685793Y-65122537I95671J230970D01*
G01*
G37*
G36*
G01*
X92098931Y-64051023D02*
X92577285Y-62896174D01*
G75*
G02*
X92903926Y-62760875I230970J-95671D01*
G01*
X93596836Y-63047888D01*
G75*
G02*
X93732135Y-63374529I-95671J-230970D01*
G01*
X93253781Y-64529378D01*
G75*
G02*
X92927140Y-64664677I-230970J95671D01*
G01*
X92234230Y-64377664D01*
G75*
G02*
X92098931Y-64051023I95671J230970D01*
G01*
G37*
%TD*%
%TO.C,D15*%
G36*
G01*
X94069313Y-60663197D02*
X94953197Y-59779313D01*
G75*
G02*
X95306751Y-59779313I176777J-176777D01*
G01*
X95837081Y-60309643D01*
G75*
G02*
X95837081Y-60663197I-176777J-176777D01*
G01*
X94953197Y-61547081D01*
G75*
G02*
X94599643Y-61547081I-176777J176777D01*
G01*
X94069313Y-61016751D01*
G75*
G02*
X94069313Y-60663197I176777J176777D01*
G01*
G37*
G36*
G01*
X96049211Y-62643095D02*
X96933095Y-61759211D01*
G75*
G02*
X97286649Y-61759211I176777J-176777D01*
G01*
X97816979Y-62289541D01*
G75*
G02*
X97816979Y-62643095I-176777J-176777D01*
G01*
X96933095Y-63526979D01*
G75*
G02*
X96579541Y-63526979I-176777J176777D01*
G01*
X96049211Y-62996649D01*
G75*
G02*
X96049211Y-62643095I176777J176777D01*
G01*
G37*
%TD*%
%TO.C,D16*%
G36*
G01*
X98257688Y-60874147D02*
X99412537Y-60395793D01*
G75*
G02*
X99739178Y-60531092I95671J-230970D01*
G01*
X100026191Y-61224002D01*
G75*
G02*
X99890892Y-61550643I-230970J-95671D01*
G01*
X98736043Y-62028997D01*
G75*
G02*
X98409402Y-61893698I-95671J230970D01*
G01*
X98122389Y-61200788D01*
G75*
G02*
X98257688Y-60874147I230970J95671D01*
G01*
G37*
G36*
G01*
X97186174Y-58287285D02*
X98341023Y-57808931D01*
G75*
G02*
X98667664Y-57944230I95671J-230970D01*
G01*
X98954677Y-58637140D01*
G75*
G02*
X98819378Y-58963781I-230970J-95671D01*
G01*
X97664529Y-59442135D01*
G75*
G02*
X97337888Y-59306836I-95671J230970D01*
G01*
X97050875Y-58613926D01*
G75*
G02*
X97186174Y-58287285I230970J95671D01*
G01*
G37*
%TD*%
D10*
%TO.C,J1*%
X69850000Y-60960000D03*
D11*
X72390000Y-60960000D03*
X69850000Y-63500000D03*
X72390000Y-63500000D03*
X69850000Y-66040000D03*
X72390000Y-66040000D03*
X69850000Y-68580000D03*
X72390000Y-68580000D03*
X69850000Y-71120000D03*
X72390000Y-71120000D03*
X69850000Y-73660000D03*
X72390000Y-73660000D03*
%TD*%
D12*
%TO.C,Q1*%
X103140000Y-66360000D03*
X103140000Y-68260000D03*
X105140000Y-67310000D03*
%TD*%
%TO.C,Q2*%
X98060000Y-67310000D03*
X100060000Y-66360000D03*
X100060000Y-68260000D03*
%TD*%
%TO.C,R1*%
G36*
G01*
X113820000Y-59239998D02*
X113820000Y-60140002D01*
G75*
G02*
X113570002Y-60390000I-249998J0D01*
G01*
X113044998Y-60390000D01*
G75*
G02*
X112795000Y-60140002I0J249998D01*
G01*
X112795000Y-59239998D01*
G75*
G02*
X113044998Y-58990000I249998J0D01*
G01*
X113570002Y-58990000D01*
G75*
G02*
X113820000Y-59239998I0J-249998D01*
G01*
G37*
G36*
G01*
X111995000Y-59239998D02*
X111995000Y-60140002D01*
G75*
G02*
X111745002Y-60390000I-249998J0D01*
G01*
X111219998Y-60390000D01*
G75*
G02*
X110970000Y-60140002I0J249998D01*
G01*
X110970000Y-59239998D01*
G75*
G02*
X111219998Y-58990000I249998J0D01*
G01*
X111745002Y-58990000D01*
G75*
G02*
X111995000Y-59239998I0J-249998D01*
G01*
G37*
%TD*%
%TO.C,R2*%
G36*
G01*
X111995000Y-74479998D02*
X111995000Y-75380002D01*
G75*
G02*
X111745002Y-75630000I-249998J0D01*
G01*
X111219998Y-75630000D01*
G75*
G02*
X110970000Y-75380002I0J249998D01*
G01*
X110970000Y-74479998D01*
G75*
G02*
X111219998Y-74230000I249998J0D01*
G01*
X111745002Y-74230000D01*
G75*
G02*
X111995000Y-74479998I0J-249998D01*
G01*
G37*
G36*
G01*
X113820000Y-74479998D02*
X113820000Y-75380002D01*
G75*
G02*
X113570002Y-75630000I-249998J0D01*
G01*
X113044998Y-75630000D01*
G75*
G02*
X112795000Y-75380002I0J249998D01*
G01*
X112795000Y-74479998D01*
G75*
G02*
X113044998Y-74230000I249998J0D01*
G01*
X113570002Y-74230000D01*
G75*
G02*
X113820000Y-74479998I0J-249998D01*
G01*
G37*
%TD*%
%TO.C,R3*%
G36*
G01*
X89055000Y-59874998D02*
X89055000Y-60775002D01*
G75*
G02*
X88805002Y-61025000I-249998J0D01*
G01*
X88279998Y-61025000D01*
G75*
G02*
X88030000Y-60775002I0J249998D01*
G01*
X88030000Y-59874998D01*
G75*
G02*
X88279998Y-59625000I249998J0D01*
G01*
X88805002Y-59625000D01*
G75*
G02*
X89055000Y-59874998I0J-249998D01*
G01*
G37*
G36*
G01*
X87230000Y-59874998D02*
X87230000Y-60775002D01*
G75*
G02*
X86980002Y-61025000I-249998J0D01*
G01*
X86454998Y-61025000D01*
G75*
G02*
X86205000Y-60775002I0J249998D01*
G01*
X86205000Y-59874998D01*
G75*
G02*
X86454998Y-59625000I249998J0D01*
G01*
X86980002Y-59625000D01*
G75*
G02*
X87230000Y-59874998I0J-249998D01*
G01*
G37*
%TD*%
%TO.C,R4*%
G36*
G01*
X89055000Y-61779998D02*
X89055000Y-62680002D01*
G75*
G02*
X88805002Y-62930000I-249998J0D01*
G01*
X88279998Y-62930000D01*
G75*
G02*
X88030000Y-62680002I0J249998D01*
G01*
X88030000Y-61779998D01*
G75*
G02*
X88279998Y-61530000I249998J0D01*
G01*
X88805002Y-61530000D01*
G75*
G02*
X89055000Y-61779998I0J-249998D01*
G01*
G37*
G36*
G01*
X87230000Y-61779998D02*
X87230000Y-62680002D01*
G75*
G02*
X86980002Y-62930000I-249998J0D01*
G01*
X86454998Y-62930000D01*
G75*
G02*
X86205000Y-62680002I0J249998D01*
G01*
X86205000Y-61779998D01*
G75*
G02*
X86454998Y-61530000I249998J0D01*
G01*
X86980002Y-61530000D01*
G75*
G02*
X87230000Y-61779998I0J-249998D01*
G01*
G37*
%TD*%
%TO.C,R5*%
G36*
G01*
X87230000Y-63684998D02*
X87230000Y-64585002D01*
G75*
G02*
X86980002Y-64835000I-249998J0D01*
G01*
X86454998Y-64835000D01*
G75*
G02*
X86205000Y-64585002I0J249998D01*
G01*
X86205000Y-63684998D01*
G75*
G02*
X86454998Y-63435000I249998J0D01*
G01*
X86980002Y-63435000D01*
G75*
G02*
X87230000Y-63684998I0J-249998D01*
G01*
G37*
G36*
G01*
X89055000Y-63684998D02*
X89055000Y-64585002D01*
G75*
G02*
X88805002Y-64835000I-249998J0D01*
G01*
X88279998Y-64835000D01*
G75*
G02*
X88030000Y-64585002I0J249998D01*
G01*
X88030000Y-63684998D01*
G75*
G02*
X88279998Y-63435000I249998J0D01*
G01*
X88805002Y-63435000D01*
G75*
G02*
X89055000Y-63684998I0J-249998D01*
G01*
G37*
%TD*%
%TO.C,R6*%
G36*
G01*
X87230000Y-65589998D02*
X87230000Y-66490002D01*
G75*
G02*
X86980002Y-66740000I-249998J0D01*
G01*
X86454998Y-66740000D01*
G75*
G02*
X86205000Y-66490002I0J249998D01*
G01*
X86205000Y-65589998D01*
G75*
G02*
X86454998Y-65340000I249998J0D01*
G01*
X86980002Y-65340000D01*
G75*
G02*
X87230000Y-65589998I0J-249998D01*
G01*
G37*
G36*
G01*
X89055000Y-65589998D02*
X89055000Y-66490002D01*
G75*
G02*
X88805002Y-66740000I-249998J0D01*
G01*
X88279998Y-66740000D01*
G75*
G02*
X88030000Y-66490002I0J249998D01*
G01*
X88030000Y-65589998D01*
G75*
G02*
X88279998Y-65340000I249998J0D01*
G01*
X88805002Y-65340000D01*
G75*
G02*
X89055000Y-65589998I0J-249998D01*
G01*
G37*
%TD*%
%TO.C,R7*%
G36*
G01*
X89055000Y-68129998D02*
X89055000Y-69030002D01*
G75*
G02*
X88805002Y-69280000I-249998J0D01*
G01*
X88279998Y-69280000D01*
G75*
G02*
X88030000Y-69030002I0J249998D01*
G01*
X88030000Y-68129998D01*
G75*
G02*
X88279998Y-67880000I249998J0D01*
G01*
X88805002Y-67880000D01*
G75*
G02*
X89055000Y-68129998I0J-249998D01*
G01*
G37*
G36*
G01*
X87230000Y-68129998D02*
X87230000Y-69030002D01*
G75*
G02*
X86980002Y-69280000I-249998J0D01*
G01*
X86454998Y-69280000D01*
G75*
G02*
X86205000Y-69030002I0J249998D01*
G01*
X86205000Y-68129998D01*
G75*
G02*
X86454998Y-67880000I249998J0D01*
G01*
X86980002Y-67880000D01*
G75*
G02*
X87230000Y-68129998I0J-249998D01*
G01*
G37*
%TD*%
%TO.C,R8*%
G36*
G01*
X87230000Y-70034998D02*
X87230000Y-70935002D01*
G75*
G02*
X86980002Y-71185000I-249998J0D01*
G01*
X86454998Y-71185000D01*
G75*
G02*
X86205000Y-70935002I0J249998D01*
G01*
X86205000Y-70034998D01*
G75*
G02*
X86454998Y-69785000I249998J0D01*
G01*
X86980002Y-69785000D01*
G75*
G02*
X87230000Y-70034998I0J-249998D01*
G01*
G37*
G36*
G01*
X89055000Y-70034998D02*
X89055000Y-70935002D01*
G75*
G02*
X88805002Y-71185000I-249998J0D01*
G01*
X88279998Y-71185000D01*
G75*
G02*
X88030000Y-70935002I0J249998D01*
G01*
X88030000Y-70034998D01*
G75*
G02*
X88279998Y-69785000I249998J0D01*
G01*
X88805002Y-69785000D01*
G75*
G02*
X89055000Y-70034998I0J-249998D01*
G01*
G37*
%TD*%
%TO.C,R9*%
G36*
G01*
X87230000Y-71939998D02*
X87230000Y-72840002D01*
G75*
G02*
X86980002Y-73090000I-249998J0D01*
G01*
X86454998Y-73090000D01*
G75*
G02*
X86205000Y-72840002I0J249998D01*
G01*
X86205000Y-71939998D01*
G75*
G02*
X86454998Y-71690000I249998J0D01*
G01*
X86980002Y-71690000D01*
G75*
G02*
X87230000Y-71939998I0J-249998D01*
G01*
G37*
G36*
G01*
X89055000Y-71939998D02*
X89055000Y-72840002D01*
G75*
G02*
X88805002Y-73090000I-249998J0D01*
G01*
X88279998Y-73090000D01*
G75*
G02*
X88030000Y-72840002I0J249998D01*
G01*
X88030000Y-71939998D01*
G75*
G02*
X88279998Y-71690000I249998J0D01*
G01*
X88805002Y-71690000D01*
G75*
G02*
X89055000Y-71939998I0J-249998D01*
G01*
G37*
%TD*%
%TO.C,R10*%
G36*
G01*
X89055000Y-73844998D02*
X89055000Y-74745002D01*
G75*
G02*
X88805002Y-74995000I-249998J0D01*
G01*
X88279998Y-74995000D01*
G75*
G02*
X88030000Y-74745002I0J249998D01*
G01*
X88030000Y-73844998D01*
G75*
G02*
X88279998Y-73595000I249998J0D01*
G01*
X88805002Y-73595000D01*
G75*
G02*
X89055000Y-73844998I0J-249998D01*
G01*
G37*
G36*
G01*
X87230000Y-73844998D02*
X87230000Y-74745002D01*
G75*
G02*
X86980002Y-74995000I-249998J0D01*
G01*
X86454998Y-74995000D01*
G75*
G02*
X86205000Y-74745002I0J249998D01*
G01*
X86205000Y-73844998D01*
G75*
G02*
X86454998Y-73595000I249998J0D01*
G01*
X86980002Y-73595000D01*
G75*
G02*
X87230000Y-73844998I0J-249998D01*
G01*
G37*
%TD*%
%TO.C,SW1*%
G36*
G01*
X118840000Y-65250000D02*
X118840000Y-64750000D01*
G75*
G02*
X119090000Y-64500000I250000J0D01*
G01*
X120590000Y-64500000D01*
G75*
G02*
X120840000Y-64750000I0J-250000D01*
G01*
X120840000Y-65250000D01*
G75*
G02*
X120590000Y-65500000I-250000J0D01*
G01*
X119090000Y-65500000D01*
G75*
G02*
X118840000Y-65250000I0J250000D01*
G01*
G37*
G36*
G01*
X118840000Y-62250000D02*
X118840000Y-61750000D01*
G75*
G02*
X119090000Y-61500000I250000J0D01*
G01*
X120590000Y-61500000D01*
G75*
G02*
X120840000Y-61750000I0J-250000D01*
G01*
X120840000Y-62250000D01*
G75*
G02*
X120590000Y-62500000I-250000J0D01*
G01*
X119090000Y-62500000D01*
G75*
G02*
X118840000Y-62250000I0J250000D01*
G01*
G37*
G36*
G01*
X112840000Y-65250000D02*
X112840000Y-64750000D01*
G75*
G02*
X113090000Y-64500000I250000J0D01*
G01*
X114590000Y-64500000D01*
G75*
G02*
X114840000Y-64750000I0J-250000D01*
G01*
X114840000Y-65250000D01*
G75*
G02*
X114590000Y-65500000I-250000J0D01*
G01*
X113090000Y-65500000D01*
G75*
G02*
X112840000Y-65250000I0J250000D01*
G01*
G37*
G36*
G01*
X112840000Y-62250000D02*
X112840000Y-61750000D01*
G75*
G02*
X113090000Y-61500000I250000J0D01*
G01*
X114590000Y-61500000D01*
G75*
G02*
X114840000Y-61750000I0J-250000D01*
G01*
X114840000Y-62250000D01*
G75*
G02*
X114590000Y-62500000I-250000J0D01*
G01*
X113090000Y-62500000D01*
G75*
G02*
X112840000Y-62250000I0J250000D01*
G01*
G37*
%TD*%
%TO.C,SW2*%
G36*
G01*
X120840000Y-72370000D02*
X120840000Y-72870000D01*
G75*
G02*
X120590000Y-73120000I-250000J0D01*
G01*
X119090000Y-73120000D01*
G75*
G02*
X118840000Y-72870000I0J250000D01*
G01*
X118840000Y-72370000D01*
G75*
G02*
X119090000Y-72120000I250000J0D01*
G01*
X120590000Y-72120000D01*
G75*
G02*
X120840000Y-72370000I0J-250000D01*
G01*
G37*
G36*
G01*
X120840000Y-69370000D02*
X120840000Y-69870000D01*
G75*
G02*
X120590000Y-70120000I-250000J0D01*
G01*
X119090000Y-70120000D01*
G75*
G02*
X118840000Y-69870000I0J250000D01*
G01*
X118840000Y-69370000D01*
G75*
G02*
X119090000Y-69120000I250000J0D01*
G01*
X120590000Y-69120000D01*
G75*
G02*
X120840000Y-69370000I0J-250000D01*
G01*
G37*
G36*
G01*
X114840000Y-72370000D02*
X114840000Y-72870000D01*
G75*
G02*
X114590000Y-73120000I-250000J0D01*
G01*
X113090000Y-73120000D01*
G75*
G02*
X112840000Y-72870000I0J250000D01*
G01*
X112840000Y-72370000D01*
G75*
G02*
X113090000Y-72120000I250000J0D01*
G01*
X114590000Y-72120000D01*
G75*
G02*
X114840000Y-72370000I0J-250000D01*
G01*
G37*
G36*
G01*
X114840000Y-69370000D02*
X114840000Y-69870000D01*
G75*
G02*
X114590000Y-70120000I-250000J0D01*
G01*
X113090000Y-70120000D01*
G75*
G02*
X112840000Y-69870000I0J250000D01*
G01*
X112840000Y-69370000D01*
G75*
G02*
X113090000Y-69120000I250000J0D01*
G01*
X114590000Y-69120000D01*
G75*
G02*
X114840000Y-69370000I0J-250000D01*
G01*
G37*
%TD*%
%TO.C,U1*%
G36*
G01*
X76560000Y-60475000D02*
X76560000Y-60175000D01*
G75*
G02*
X76710000Y-60025000I150000J0D01*
G01*
X78360000Y-60025000D01*
G75*
G02*
X78510000Y-60175000I0J-150000D01*
G01*
X78510000Y-60475000D01*
G75*
G02*
X78360000Y-60625000I-150000J0D01*
G01*
X76710000Y-60625000D01*
G75*
G02*
X76560000Y-60475000I0J150000D01*
G01*
G37*
G36*
G01*
X76560000Y-61745000D02*
X76560000Y-61445000D01*
G75*
G02*
X76710000Y-61295000I150000J0D01*
G01*
X78360000Y-61295000D01*
G75*
G02*
X78510000Y-61445000I0J-150000D01*
G01*
X78510000Y-61745000D01*
G75*
G02*
X78360000Y-61895000I-150000J0D01*
G01*
X76710000Y-61895000D01*
G75*
G02*
X76560000Y-61745000I0J150000D01*
G01*
G37*
G36*
G01*
X76560000Y-63015000D02*
X76560000Y-62715000D01*
G75*
G02*
X76710000Y-62565000I150000J0D01*
G01*
X78360000Y-62565000D01*
G75*
G02*
X78510000Y-62715000I0J-150000D01*
G01*
X78510000Y-63015000D01*
G75*
G02*
X78360000Y-63165000I-150000J0D01*
G01*
X76710000Y-63165000D01*
G75*
G02*
X76560000Y-63015000I0J150000D01*
G01*
G37*
G36*
G01*
X76560000Y-64285000D02*
X76560000Y-63985000D01*
G75*
G02*
X76710000Y-63835000I150000J0D01*
G01*
X78360000Y-63835000D01*
G75*
G02*
X78510000Y-63985000I0J-150000D01*
G01*
X78510000Y-64285000D01*
G75*
G02*
X78360000Y-64435000I-150000J0D01*
G01*
X76710000Y-64435000D01*
G75*
G02*
X76560000Y-64285000I0J150000D01*
G01*
G37*
G36*
G01*
X76560000Y-65555000D02*
X76560000Y-65255000D01*
G75*
G02*
X76710000Y-65105000I150000J0D01*
G01*
X78360000Y-65105000D01*
G75*
G02*
X78510000Y-65255000I0J-150000D01*
G01*
X78510000Y-65555000D01*
G75*
G02*
X78360000Y-65705000I-150000J0D01*
G01*
X76710000Y-65705000D01*
G75*
G02*
X76560000Y-65555000I0J150000D01*
G01*
G37*
G36*
G01*
X76560000Y-66825000D02*
X76560000Y-66525000D01*
G75*
G02*
X76710000Y-66375000I150000J0D01*
G01*
X78360000Y-66375000D01*
G75*
G02*
X78510000Y-66525000I0J-150000D01*
G01*
X78510000Y-66825000D01*
G75*
G02*
X78360000Y-66975000I-150000J0D01*
G01*
X76710000Y-66975000D01*
G75*
G02*
X76560000Y-66825000I0J150000D01*
G01*
G37*
G36*
G01*
X76560000Y-68095000D02*
X76560000Y-67795000D01*
G75*
G02*
X76710000Y-67645000I150000J0D01*
G01*
X78360000Y-67645000D01*
G75*
G02*
X78510000Y-67795000I0J-150000D01*
G01*
X78510000Y-68095000D01*
G75*
G02*
X78360000Y-68245000I-150000J0D01*
G01*
X76710000Y-68245000D01*
G75*
G02*
X76560000Y-68095000I0J150000D01*
G01*
G37*
G36*
G01*
X76560000Y-69365000D02*
X76560000Y-69065000D01*
G75*
G02*
X76710000Y-68915000I150000J0D01*
G01*
X78360000Y-68915000D01*
G75*
G02*
X78510000Y-69065000I0J-150000D01*
G01*
X78510000Y-69365000D01*
G75*
G02*
X78360000Y-69515000I-150000J0D01*
G01*
X76710000Y-69515000D01*
G75*
G02*
X76560000Y-69365000I0J150000D01*
G01*
G37*
G36*
G01*
X81510000Y-69365000D02*
X81510000Y-69065000D01*
G75*
G02*
X81660000Y-68915000I150000J0D01*
G01*
X83310000Y-68915000D01*
G75*
G02*
X83460000Y-69065000I0J-150000D01*
G01*
X83460000Y-69365000D01*
G75*
G02*
X83310000Y-69515000I-150000J0D01*
G01*
X81660000Y-69515000D01*
G75*
G02*
X81510000Y-69365000I0J150000D01*
G01*
G37*
G36*
G01*
X81510000Y-68095000D02*
X81510000Y-67795000D01*
G75*
G02*
X81660000Y-67645000I150000J0D01*
G01*
X83310000Y-67645000D01*
G75*
G02*
X83460000Y-67795000I0J-150000D01*
G01*
X83460000Y-68095000D01*
G75*
G02*
X83310000Y-68245000I-150000J0D01*
G01*
X81660000Y-68245000D01*
G75*
G02*
X81510000Y-68095000I0J150000D01*
G01*
G37*
G36*
G01*
X81510000Y-66825000D02*
X81510000Y-66525000D01*
G75*
G02*
X81660000Y-66375000I150000J0D01*
G01*
X83310000Y-66375000D01*
G75*
G02*
X83460000Y-66525000I0J-150000D01*
G01*
X83460000Y-66825000D01*
G75*
G02*
X83310000Y-66975000I-150000J0D01*
G01*
X81660000Y-66975000D01*
G75*
G02*
X81510000Y-66825000I0J150000D01*
G01*
G37*
G36*
G01*
X81510000Y-65555000D02*
X81510000Y-65255000D01*
G75*
G02*
X81660000Y-65105000I150000J0D01*
G01*
X83310000Y-65105000D01*
G75*
G02*
X83460000Y-65255000I0J-150000D01*
G01*
X83460000Y-65555000D01*
G75*
G02*
X83310000Y-65705000I-150000J0D01*
G01*
X81660000Y-65705000D01*
G75*
G02*
X81510000Y-65555000I0J150000D01*
G01*
G37*
G36*
G01*
X81510000Y-64285000D02*
X81510000Y-63985000D01*
G75*
G02*
X81660000Y-63835000I150000J0D01*
G01*
X83310000Y-63835000D01*
G75*
G02*
X83460000Y-63985000I0J-150000D01*
G01*
X83460000Y-64285000D01*
G75*
G02*
X83310000Y-64435000I-150000J0D01*
G01*
X81660000Y-64435000D01*
G75*
G02*
X81510000Y-64285000I0J150000D01*
G01*
G37*
G36*
G01*
X81510000Y-63015000D02*
X81510000Y-62715000D01*
G75*
G02*
X81660000Y-62565000I150000J0D01*
G01*
X83310000Y-62565000D01*
G75*
G02*
X83460000Y-62715000I0J-150000D01*
G01*
X83460000Y-63015000D01*
G75*
G02*
X83310000Y-63165000I-150000J0D01*
G01*
X81660000Y-63165000D01*
G75*
G02*
X81510000Y-63015000I0J150000D01*
G01*
G37*
G36*
G01*
X81510000Y-61745000D02*
X81510000Y-61445000D01*
G75*
G02*
X81660000Y-61295000I150000J0D01*
G01*
X83310000Y-61295000D01*
G75*
G02*
X83460000Y-61445000I0J-150000D01*
G01*
X83460000Y-61745000D01*
G75*
G02*
X83310000Y-61895000I-150000J0D01*
G01*
X81660000Y-61895000D01*
G75*
G02*
X81510000Y-61745000I0J150000D01*
G01*
G37*
G36*
G01*
X81510000Y-60475000D02*
X81510000Y-60175000D01*
G75*
G02*
X81660000Y-60025000I150000J0D01*
G01*
X83310000Y-60025000D01*
G75*
G02*
X83460000Y-60175000I0J-150000D01*
G01*
X83460000Y-60475000D01*
G75*
G02*
X83310000Y-60625000I-150000J0D01*
G01*
X81660000Y-60625000D01*
G75*
G02*
X81510000Y-60475000I0J150000D01*
G01*
G37*
%TD*%
M02*
